<?xml version="1.0" standalone="no"?>
<!DOCTYPE svg PUBLIC "-//W3C//DTD SVG 1.1//EN" "http://www.w3.org/Graphics/SVG/1.1/DTD/svg11.dtd" >
<svg xmlns="http://www.w3.org/2000/svg" xmlns:xlink="http://www.w3.org/1999/xlink" version="1.1">
<metadata>
Created by FontForge 20201107 at Sun Apr 14 11:02:11 2024
 By 
Copyright 2020 The Plus Jakarta Display Project Authors (https://github.com/tokotype/PlusJakartaSans)
</metadata>
<defs>
<font id="PlusJakartaDisplay-Light" horiz-adv-x="0" >
  <font-face 
    font-family="Plus Jakarta Display Light"
    font-weight="300"
    font-stretch="normal"
    units-per-em="2048"
    panose-1="0 0 4 0 0 0 0 0 0 0"
    ascent="1638"
    descent="-410"
    x-height="1077"
    cap-height="1526"
    bbox="-1397 -492 2470 2126"
    underline-thickness="122"
    underline-position="-450"
    unicode-range="U+000D-FB02"
  />
<missing-glyph horiz-adv-x="1310" 
d="M123 1382v144h1065v-144h-1065zM123 922v143h1065v-143h-1065zM123 461v143h1065v-143h-1065zM123 0v143h1065v-143h-1065z" />
    <glyph glyph-name="fi" unicode="fi" horiz-adv-x="1128" 
d="M256 0v934h-215v143h215v115q0 161 98 253.5t238 92.5q64 0 106 -10v-129q-35 6 -92 6q-93 0 -150 -55.5t-57 -157.5v-115h263v-143h-263v-934h-143zM862 1303v223h144v-223h-144zM862 0v1077h144v-1077h-144z" />
    <glyph glyph-name="fl" unicode="fl" horiz-adv-x="1169" 
d="M256 0v934h-215v143h215v115q0 161 98 253.5t238 92.5q64 0 106 -10v-129q-35 6 -92 6q-93 0 -150 -55.5t-57 -157.5v-115h263v-143h-263v-934h-143zM883 0v1526h143v-1526h-143z" />
    <glyph glyph-name=".notdef" horiz-adv-x="1310" 
d="M123 1382v144h1065v-144h-1065zM123 922v143h1065v-143h-1065zM123 461v143h1065v-143h-1065zM123 0v143h1065v-143h-1065z" />
    <glyph glyph-name=".null" 
 />
    <glyph glyph-name="nonmarkingreturn" horiz-adv-x="682" 
 />
    <glyph glyph-name="NULL" 
 />
    <glyph glyph-name="NULL" 
 />
    <glyph glyph-name="CR" unicode="&#xd;" horiz-adv-x="348" 
 />
    <glyph glyph-name="space" unicode=" " horiz-adv-x="348" 
 />
    <glyph glyph-name="exclam" unicode="!" horiz-adv-x="573" 
d="M215 438l-10 1088h164l-11 -1088h-143zM205 0v225h164v-225h-164z" />
    <glyph glyph-name="quotedbl" unicode="&#x22;" horiz-adv-x="942" 
d="M215 983v543h164v-543h-164zM563 983v543h164v-543h-164z" />
    <glyph glyph-name="numbersign" unicode="#" horiz-adv-x="1581" 
d="M193 0l114 399h-246v144h287l127 440h-246v143h287l115 400h164l-115 -400h430l115 400h164l-115 -400h246v-143h-287l-127 -440h246v-144h-287l-115 -399h-164l115 399h-430l-115 -399h-163zM512 543h430l127 440h-430z" />
    <glyph glyph-name="dollar" unicode="$" horiz-adv-x="1290" 
d="M1188 391q0 -177 -128.5 -291t-338.5 -125v-180h-143v189q-178 29 -307.5 139t-178.5 262l148 64q44 -132 131 -213.5t207 -106.5v576l-78 22q-176 51 -269.5 160t-93.5 250q0 171 123.5 285t317.5 126v207h143v-211q166 -26 286.5 -124.5t166.5 -233.5l-148 -68
q-39 116 -118 187.5t-187 93.5v-574l94 -28q188 -56 280.5 -155.5t92.5 -250.5zM551 874l27 -8v539q-126 -11 -201.5 -80t-75.5 -176q0 -96 64.5 -168t185.5 -107zM721 121q137 8 220 77.5t83 178.5q0 104 -59 167.5t-187 100.5l-57 17v-541z" />
    <glyph glyph-name="percent" unicode="%" horiz-adv-x="2117" 
d="M567 825q-151 0 -256.5 106t-105.5 257t105.5 256.5t256.5 105.5q149 0 255 -106t106 -256q0 -151 -106 -257t-255 -106zM623 0l692 1526h176l-692 -1526h-176zM567 971q88 0 152.5 64.5t64.5 152.5t-64.5 152.5t-152.5 64.5q-89 0 -153 -64.5t-64 -152.5t64 -152.5
t153 -64.5zM1550 -25q-150 0 -255 105.5t-105 255.5q0 151 105.5 256.5t254.5 105.5q151 0 257 -105.5t106 -256.5t-106 -256t-257 -105zM1550 119q89 0 153 64.5t64 152.5t-64 152.5t-153 64.5q-88 0 -152.5 -64.5t-64.5 -152.5t64.5 -152.5t152.5 -64.5z" />
    <glyph glyph-name="ampersand" unicode="&#x26;" horiz-adv-x="1808" 
d="M1624 700l-362 -354l335 -346h-200l-236 246q-152 -149 -266.5 -210t-243.5 -61q-198 0 -327 113t-129 285q0 134 80.5 239t250.5 189l70 35l-25 24q-157 165 -157 332q0 152 112.5 255t278.5 103q160 0 265.5 -97.5t105.5 -246.5q0 -115 -72.5 -203.5t-231.5 -168.5
l-57 -29l354 -365l277 260h178zM702 922l23 -23l57 29q137 68 193.5 130.5t56.5 147.5q0 98 -63 159.5t-164 61.5q-106 0 -177 -67t-71 -168q0 -64 34 -127.5t111 -142.5zM1051 328l16 16l-381 395l-86 -43q-242 -121 -242 -323q0 -117 79 -185.5t214 -68.5q102 0 195 52
t205 157z" />
    <glyph glyph-name="quotesingle" unicode="'" horiz-adv-x="593" 
d="M215 983v543h164v-543h-164z" />
    <glyph glyph-name="parenleft" unicode="(" horiz-adv-x="782" 
d="M557 -287q-163 185 -247.5 416t-84.5 492t84.5 491.5t247.5 413.5h133q-147 -203 -224 -435t-77 -470t76.5 -469.5t224.5 -438.5h-133z" />
    <glyph glyph-name="parenright" unicode=")" horiz-adv-x="782" 
d="M92 -287q148 207 224.5 438.5t76.5 469.5t-77 470t-224 435h133q163 -183 247.5 -413.5t84.5 -491.5t-84.5 -492t-247.5 -416h-133z" />
    <glyph glyph-name="asterisk" unicode="*" horiz-adv-x="1028" 
d="M336 784l-119 86l176 234l-260 88l45 139l262 -86v281h148v-281l262 86l45 -139l-260 -88l176 -234l-119 -86l-178 234z" />
    <glyph glyph-name="plus" unicode="+" horiz-adv-x="1249" 
d="M549 334v354h-354v154h354v352h153v-352h353v-154h-353v-354h-153z" />
    <glyph glyph-name="comma" unicode="," horiz-adv-x="663" 
d="M195 -246l79 471h175l-142 -471h-112z" />
    <glyph glyph-name="hyphen" unicode="-" horiz-adv-x="1105" 
d="M195 479v144h716v-144h-716z" />
    <glyph glyph-name="period" unicode="." horiz-adv-x="593" 
d="M215 0v225h164v-225h-164z" />
    <glyph glyph-name="slash" unicode="/" horiz-adv-x="950" 
d="M41 0l692 1526h176l-692 -1526h-176z" />
    <glyph glyph-name="zero" unicode="0" horiz-adv-x="1490" 
d="M748 -25q-178 0 -315.5 98.5t-213.5 278t-76 412.5q0 353 166 569.5t436 216.5t436.5 -216.5t166.5 -569.5q0 -234 -74.5 -413.5t-211 -277.5t-314.5 -98zM748 129q197 0 317.5 174.5t120.5 460.5q0 284 -121.5 458.5t-319.5 174.5q-197 0 -317.5 -174.5t-120.5 -458.5
t121.5 -459.5t319.5 -175.5z" />
    <glyph glyph-name="one" unicode="1" horiz-adv-x="819" 
d="M348 0v1382h-287v144h451v-1526h-164z" />
    <glyph glyph-name="two" unicode="2" horiz-adv-x="1232" 
d="M119 0v102l426 449q106 111 165.5 180t108 140t67.5 129t19 122q0 136 -78.5 210.5t-220.5 74.5q-138 0 -233.5 -65.5t-139.5 -190.5l-131 61q54 156 189.5 247t314.5 91q201 0 332 -120.5t131 -307.5q0 -125 -78 -255t-256 -318l-383 -406h758v-143h-991z" />
    <glyph glyph-name="three" unicode="3" horiz-adv-x="1243" 
d="M711 940q174 -22 291.5 -159t117.5 -322q0 -211 -143.5 -347.5t-366.5 -136.5q-179 0 -314.5 90t-193.5 248l131 62q46 -119 147 -187.5t230 -68.5q154 0 250 94.5t96 245.5q0 148 -98 243t-250 95q-49 0 -110 -9l-15 91l394 501l-703 2v144h887v-144z" />
    <glyph glyph-name="four" unicode="4" horiz-adv-x="1320" 
d="M1219 494v-134h-197v-360h-143v360h-797v134l797 1032h143v-1032h197zM254 494h625v817z" />
    <glyph glyph-name="five" unicode="5" horiz-adv-x="1271" 
d="M629 965q227 0 373.5 -139.5t146.5 -356.5q0 -218 -146.5 -356t-377.5 -138q-183 0 -323 90.5t-200 247.5l125 62q49 -118 157.5 -187t240.5 -69q159 0 259.5 97.5t100.5 252.5q0 154 -100.5 251t-261.5 97q-99 0 -183 -37.5t-123 -101.5l-102 20l82 830h786v-144h-669
l-49 -493q118 74 264 74z" />
    <glyph glyph-name="six" unicode="6" horiz-adv-x="1187" 
d="M594 944q132 0 245 -65.5t179.5 -177.5t66.5 -242q0 -207 -140 -345.5t-351 -138.5q-215 0 -353.5 141.5t-138.5 362.5q0 239 177 475l430 572h184l-473 -621q73 39 174 39zM594 119q141 0 234.5 97t93.5 243t-93 242t-235 96t-235 -96t-93 -242t93.5 -243t234.5 -97z
" />
    <glyph glyph-name="seven" unicode="7" horiz-adv-x="1075" 
d="M156 0l688 1384h-762v144h932v-144l-686 -1384h-172z" />
    <glyph glyph-name="eight" unicode="8" horiz-adv-x="1296" 
d="M907 842q124 -54 195.5 -161.5t71.5 -240.5q0 -201 -150 -333t-377 -132t-375.5 132t-148.5 333q0 133 71.5 240.5t194.5 161.5q-88 52 -136 135.5t-48 179.5q0 167 126.5 280t315.5 113q192 0 316 -110.5t124 -282.5q0 -98 -47 -180.5t-133 -134.5zM647 1407
q-118 0 -197 -71.5t-79 -178.5q0 -109 78 -180.5t198 -71.5q119 0 198 71.5t79 180.5q0 108 -79 179t-198 71zM647 119q156 0 259.5 91t103.5 230t-103 230.5t-260 91.5q-155 0 -257.5 -91.5t-102.5 -230.5t102 -230t258 -91z" />
    <glyph glyph-name="nine" unicode="9" horiz-adv-x="1187" 
d="M594 1550q215 0 353 -141t138 -362q0 -241 -176 -476l-430 -571h-184l473 621q-73 -39 -174 -39q-99 0 -190 39t-157 104t-105.5 155t-39.5 187q0 207 140.5 345t351.5 138zM594 729q142 0 235 96t93 242t-93.5 243t-234.5 97t-234.5 -97t-93.5 -243t93 -242t235 -96z
" />
    <glyph glyph-name="colon" unicode=":" horiz-adv-x="593" 
d="M215 877v225h164v-225h-164zM215 0v225h164v-225h-164z" />
    <glyph glyph-name="semicolon" unicode=";" horiz-adv-x="690" 
d="M311 877v225h164v-225h-164zM215 -246l80 471h174l-141 -471h-113z" />
    <glyph glyph-name="less" unicode="&#x3c;" horiz-adv-x="1185" 
d="M1014 0l-842 481v140l842 481v-166l-664 -385l664 -385v-166z" />
    <glyph glyph-name="equal" unicode="=" horiz-adv-x="1351" 
d="M246 934v153h860v-153h-860zM246 442v154h860v-154h-860z" />
    <glyph glyph-name="greater" unicode="&#x3e;" horiz-adv-x="1144" 
d="M172 0v166l664 385l-664 385v166l842 -481v-140z" />
    <glyph glyph-name="question" unicode="?" horiz-adv-x="1171" 
d="M426 438v21q0 53 13.5 103t32.5 87t53 79t59 67.5t67 64.5q99 96 133 139q70 91 70 185t-63.5 158.5t-188.5 64.5q-262 0 -338 -256l-131 61q47 156 172.5 247t296.5 91q96 0 175.5 -29.5t131.5 -80t80.5 -117t28.5 -139.5q0 -38 -6.5 -73t-25 -70.5t-31.5 -59t-45 -59.5
t-45.5 -50.5t-54 -54t-50.5 -49.5q-83 -83 -126.5 -153t-43.5 -156v-21h-164zM432 0v225h164v-225h-164z" />
    <glyph glyph-name="at" unicode="@" horiz-adv-x="1939" 
d="M971 1550q174 0 330.5 -66t269.5 -178.5t179.5 -268.5t66.5 -330q0 -202 -93.5 -320.5t-253.5 -118.5q-90 0 -155 40t-94 112q-51 -67 -128 -103t-169 -36q-180 0 -300 124.5t-120 311.5q0 186 121 312t299 126q94 0 171.5 -41t123.5 -115v136h139v-566
q0 -76 33.5 -117.5t93.5 -41.5q83 0 130.5 79.5t47.5 217.5q0 200 -89 360t-247 250t-356 90t-357 -90.5t-248.5 -250.5t-89.5 -359q0 -149 52.5 -279t144 -223t221 -146t277.5 -53q194 0 338 78l65 -123q-176 -98 -403 -98q-237 0 -431.5 111t-305.5 304.5t-111 428.5
q0 175 66 331.5t178.5 268.5t270 177.5t333.5 65.5zM930 424q118 0 196 84.5t78 210.5t-77.5 207.5t-196.5 81.5q-118 0 -195.5 -82.5t-77.5 -208.5q0 -125 78 -209t195 -84z" />
    <glyph glyph-name="A" unicode="A" horiz-adv-x="1398" 
d="M786 1526l562 -1526h-172l-134 377h-686l-133 -377h-172l561 1526h174zM408 520h583l-291 823z" />
    <glyph glyph-name="B" unicode="B" horiz-adv-x="1372" 
d="M1055 821q111 -57 173 -157t62 -224q0 -202 -133.5 -321t-357.5 -119h-635v1526h635q193 0 311.5 -105.5t118.5 -277.5q0 -104 -45.5 -187.5t-128.5 -134.5zM328 1382v-501h458q123 0 197 69t74 183q0 113 -74 181t-197 68h-458zM799 143q144 0 231.5 81.5t87.5 215.5
t-87.5 215.5t-231.5 81.5h-471v-594h471z" />
    <glyph glyph-name="C" unicode="C" horiz-adv-x="1570" 
d="M856 -25q-212 0 -382 101t-265.5 281t-95.5 405t95.5 405.5t265.5 281.5t382 101q112 0 214.5 -32.5t179.5 -87t133 -121.5t85 -140l-147 -71q-58 143 -179.5 226t-285.5 83q-167 0 -299.5 -81.5t-206.5 -229t-74 -334.5q0 -283 163 -463t417 -180q164 0 285.5 82.5
t179.5 224.5l147 -72q-29 -73 -85 -139.5t-133 -121t-179.5 -86.5t-214.5 -32z" />
    <glyph glyph-name="D" unicode="D" horiz-adv-x="1525" 
d="M164 0v1526h502q340 0 543.5 -207t203.5 -555q0 -347 -203.5 -555.5t-543.5 -208.5h-502zM328 143h338q262 0 418.5 169.5t156.5 451.5q0 280 -157 449t-418 169h-338v-1239z" />
    <glyph glyph-name="E" unicode="E" horiz-adv-x="1269" 
d="M164 0v1526h983v-144h-819v-546h778v-144h-778v-549h819v-143h-983z" />
    <glyph glyph-name="F" unicode="F" horiz-adv-x="1228" 
d="M164 0v1526h983v-144h-819v-546h778v-144h-778v-692h-164z" />
    <glyph glyph-name="G" unicode="G" horiz-adv-x="1611" 
d="M877 -25q-215 0 -390 102.5t-274.5 283t-99.5 401.5q0 220 97 400.5t267.5 284t378.5 103.5t376 -105t236 -276l-147 -71q-60 148 -181.5 228.5t-283.5 80.5q-253 0 -416.5 -182t-163.5 -463q0 -187 76 -334t213 -228t312 -81q165 0 294 72.5t185 203.5v248h-482v143h635
v-411q-69 -183 -240.5 -291.5t-391.5 -108.5z" />
    <glyph glyph-name="H" unicode="H" horiz-adv-x="1474" 
d="M164 0v1526h164v-727h819v727h164v-1526h-164v655h-819v-655h-164z" />
    <glyph glyph-name="I" unicode="I" horiz-adv-x="491" 
d="M164 0v1526h164v-1526h-164z" />
    <glyph glyph-name="J" unicode="J" horiz-adv-x="704" 
d="M61 0v164h70q114 0 180 68.5t66 187.5v1106h164v-1106q0 -193 -111 -306.5t-299 -113.5h-70z" />
    <glyph glyph-name="K" unicode="K" horiz-adv-x="1333" 
d="M700 956l592 -956h-192l-510 831l-262 -290v-541h-164v1526h164v-760l686 760h196z" />
    <glyph glyph-name="L" unicode="L" horiz-adv-x="1085" 
d="M164 0v1526h164v-1383h676v-143h-840z" />
    <glyph glyph-name="M" unicode="M" horiz-adv-x="1679" 
d="M1372 1526h144v-1526h-164v1206l-508 -735h-8l-508 739v-1210h-164v1526h143l533 -774z" />
    <glyph glyph-name="N" unicode="N" horiz-adv-x="1474" 
d="M1147 1526h164v-1526h-144l-839 1221v-1221h-164v1526h143l840 -1213v1213z" />
    <glyph glyph-name="O" unicode="O" horiz-adv-x="1753" 
d="M877 -25q-157 0 -298 59t-243.5 162t-162.5 251t-60 317t60 316t162.5 249.5t243.5 161.5t298 59t297.5 -59t243 -162t162.5 -250t60 -315q0 -169 -60 -316.5t-162.5 -250.5t-243 -162.5t-297.5 -59.5zM877 129q129 0 241.5 50t191 136t123 202.5t44.5 246.5
q0 129 -44.5 245t-122.5 201.5t-190.5 136t-242.5 50.5q-173 0 -311.5 -86t-214 -230.5t-75.5 -316.5q0 -174 76 -319t214.5 -230.5t310.5 -85.5z" />
    <glyph glyph-name="P" unicode="P" horiz-adv-x="1300" 
d="M164 0v1526h524q233 0 376.5 -129t143.5 -338t-142.5 -337t-377.5 -128h-360v-594h-164zM328 737h360q157 0 252.5 89t95.5 235q0 145 -95.5 233t-252.5 88h-360v-645z" />
    <glyph glyph-name="Q" unicode="Q" horiz-adv-x="1753" 
d="M1640 764q0 -218 -95.5 -394t-260.5 -280l205 -356h-182l-162 289q-130 -48 -268 -48q-157 0 -298 59t-243.5 162t-162.5 251t-60 317t60 316t162.5 249.5t243.5 161.5t298 59t297.5 -59t243 -162t162.5 -250t60 -315zM877 129q101 0 192 31l-252 450h170l219 -383
q127 85 199 227t72 310q0 129 -44.5 245t-122.5 201.5t-190.5 136t-242.5 50.5q-173 0 -311.5 -86t-214 -230.5t-75.5 -316.5q0 -174 76 -319t214.5 -230.5t310.5 -85.5z" />
    <glyph glyph-name="R" unicode="R" horiz-adv-x="1343" 
d="M164 0v1526h524q233 0 376.5 -129t143.5 -338q0 -158 -83.5 -272.5t-231.5 -161.5l358 -625h-192l-338 594h-393v-594h-164zM328 737h360q157 0 252.5 89t95.5 235q0 145 -95.5 233t-252.5 88h-360v-645z" />
    <glyph glyph-name="S" unicode="S" horiz-adv-x="1290" 
d="M686 -25q-216 0 -377 117t-217 293l148 64q54 -161 169 -245.5t277 -84.5q151 0 244.5 71.5t93.5 186.5q0 104 -59 167.5t-187 100.5l-278 82q-176 51 -269.5 160t-93.5 250q0 181 136.5 297t349.5 116q201 0 349.5 -103.5t201.5 -260.5l-148 -68q-49 141 -152.5 215
t-248.5 74q-146 0 -235 -70.5t-89 -187.5q0 -96 64.5 -168t185.5 -107l264 -77q188 -56 280.5 -155.5t92.5 -250.5q0 -185 -139.5 -300.5t-362.5 -115.5z" />
    <glyph glyph-name="T" unicode="T" horiz-adv-x="1148" 
d="M494 0v1382h-422v144h1005v-144h-420v-1382h-163z" />
    <glyph glyph-name="U" unicode="U" horiz-adv-x="1413" 
d="M1083 1526h166v-1049q0 -228 -147.5 -365t-394.5 -137t-395 136.5t-148 365.5v1049h166v-1049q0 -155 107.5 -256.5t269.5 -101.5q160 0 268 102.5t108 255.5v1049z" />
    <glyph glyph-name="V" unicode="V" horiz-adv-x="1398" 
d="M1176 1526h172l-562 -1526h-174l-561 1526h172l477 -1333z" />
    <glyph glyph-name="W" unicode="W" horiz-adv-x="2113" 
d="M1876 1526h166l-438 -1526h-174l-373 1321l-373 -1321h-174l-438 1526h166l362 -1307l358 1307h197l358 -1303z" />
    <glyph glyph-name="X" unicode="X" horiz-adv-x="1284" 
d="M1212 0h-180l-389 633l-393 -633h-178l479 778l-463 748h182l373 -604l371 604h182l-465 -748z" />
    <glyph glyph-name="Y" unicode="Y" horiz-adv-x="1333" 
d="M1102 1526h180l-532 -817v-709h-164v709l-535 817h180l437 -666z" />
    <glyph glyph-name="Z" unicode="Z" horiz-adv-x="1224" 
d="M270 143h893v-143h-1102v100l875 1282h-823v144h1032v-101z" />
    <glyph glyph-name="bracketleft" unicode="[" horiz-adv-x="768" 
d="M225 -287v1813h410v-144h-246v-1525h246v-144h-410z" />
    <glyph glyph-name="backslash" unicode="\" horiz-adv-x="950" 
d="M733 0l-692 1526h176l692 -1526h-176z" />
    <glyph glyph-name="bracketright" unicode="]" horiz-adv-x="768" 
d="M133 -287v144h246v1525h-246v144h410v-1813h-410z" />
    <glyph glyph-name="asciicircum" unicode="^" horiz-adv-x="1224" 
d="M1030 870h-176l-240 465l-243 -465h-176l346 656h143z" />
    <glyph glyph-name="underscore" unicode="_" horiz-adv-x="983" 
d="M952 0v-143h-921v143h921z" />
    <glyph glyph-name="grave" unicode="`" horiz-adv-x="397" 
d="M356 1311h-129l-186 311h156z" />
    <glyph glyph-name="a" unicode="a" horiz-adv-x="1056" 
d="M547 1102q180 0 293.5 -102.5t113.5 -264.5v-735h-143v166q-51 -85 -147 -138t-201 -53q-170 0 -275.5 90.5t-105.5 235.5q0 117 90.5 198.5t255.5 118.5l383 89v28q0 100 -73.5 161.5t-190.5 61.5q-100 0 -177 -48t-116 -130l-131 70q47 107 165.5 179.5t258.5 72.5z
M463 117q152 0 250 102t98 258v105l-346 -80q-104 -24 -166.5 -78t-62.5 -125q0 -83 61.5 -132.5t165.5 -49.5z" />
    <glyph glyph-name="b" unicode="b" horiz-adv-x="1312" 
d="M690 1102q228 0 384.5 -160t156.5 -403q0 -161 -72.5 -290.5t-196.5 -201.5t-274 -72q-127 0 -234 52t-167 143v-170h-144v1526h144v-627q55 94 163.5 148.5t239.5 54.5zM684 119q169 0 281 119.5t112 300.5q0 180 -112 299.5t-281 119.5q-170 0 -283.5 -119.5
t-113.5 -299.5q0 -181 113 -300.5t284 -119.5z" />
    <glyph glyph-name="c" unicode="c" horiz-adv-x="1118" 
d="M612 -25q-228 0 -379 161.5t-151 404.5t150.5 402t379.5 159q148 0 270 -77.5t175 -195.5l-131 -69q-44 91 -126 144.5t-188 53.5q-162 0 -269 -119t-107 -300q0 -179 107.5 -299.5t268.5 -120.5q107 0 188.5 53.5t125.5 146.5l131 -71q-53 -116 -175.5 -194.5
t-269.5 -78.5z" />
    <glyph glyph-name="d" unicode="d" horiz-adv-x="1312" 
d="M1026 1526h143v-1526h-143v170q-60 -91 -167 -143t-234 -52q-150 0 -274 72t-196.5 201.5t-72.5 290.5q0 243 156.5 403t384.5 160q131 0 239.5 -54.5t163.5 -148.5v627zM629 119q171 0 284 119.5t113 300.5q0 180 -113.5 299.5t-283.5 119.5q-169 0 -281 -119.5
t-112 -299.5q0 -181 112 -300.5t281 -119.5z" />
    <glyph glyph-name="e" unicode="e" horiz-adv-x="1157" 
d="M1096 590q0 -44 -9 -96h-854q3 -172 114.5 -278.5t266.5 -106.5q118 0 201.5 56.5t130.5 151.5l131 -71q-54 -116 -179 -193.5t-284 -77.5q-149 0 -270.5 72.5t-191.5 202.5t-70 291q0 244 147.5 402.5t370.5 158.5q149 0 264 -72.5t173.5 -188t58.5 -251.5zM236 627h698
q0 144 -102 243t-232 99q-139 0 -243 -94t-121 -248z" />
    <glyph glyph-name="f" unicode="f" horiz-adv-x="739" 
d="M256 0v934h-215v143h215v115q0 161 98 253.5t238 92.5q64 0 106 -10v-129q-35 6 -92 6q-93 0 -150 -55.5t-57 -157.5v-115h263v-143h-263v-934h-143z" />
    <glyph glyph-name="g" unicode="g" horiz-adv-x="1269" 
d="M983 1077h143v-1036q0 -211 -144.5 -351.5t-367.5 -140.5q-161 0 -284.5 75.5t-179.5 195.5l131 71q38 -84 122 -141t207 -57q157 0 265 94t108 254v186q-60 -82 -158.5 -127t-216.5 -45q-144 0 -265 70t-191 191t-70 264q0 145 68.5 265t189.5 188.5t268 68.5
q122 0 220.5 -48.5t154.5 -133.5v157zM608 199q167 0 271 108t104 273q0 164 -106.5 271t-270.5 107q-161 0 -265.5 -104.5t-104.5 -273.5t103 -275t269 -106z" />
    <glyph glyph-name="h" unicode="h" horiz-adv-x="1124" 
d="M600 1102q173 0 287 -111.5t114 -279.5v-711h-143v657q0 137 -77.5 219t-207.5 82q-129 0 -207.5 -82.5t-78.5 -218.5v-657h-144v1526h144v-570q50 68 132.5 107t180.5 39z" />
    <glyph glyph-name="i" unicode="i" horiz-adv-x="389" 
d="M123 1303v223h143v-223h-143zM123 0v1077h143v-1077h-143z" />
    <glyph glyph-name="j" unicode="j" horiz-adv-x="364" 
d="M119 1303v223h143v-223h-143zM-72 -451q-58 0 -98 9v129q44 -6 92 -6q87 0 142 56t55 157v1183h143v-1183q0 -162 -96.5 -253.5t-237.5 -91.5z" />
    <glyph glyph-name="k" unicode="k" horiz-adv-x="1005" 
d="M985 1077l-399 -430l399 -647h-170l-328 539l-200 -217v-322h-144v1526h144v-1008l524 559h174z" />
    <glyph glyph-name="l" unicode="l" horiz-adv-x="430" 
d="M143 0v1526h144v-1526h-144z" />
    <glyph glyph-name="m" unicode="m" horiz-adv-x="1794" 
d="M1282 1102q167 0 278 -111t111 -278v-713h-143v659q0 137 -74.5 218t-200.5 81q-124 0 -199 -82t-75 -217v-659h-143v659q0 137 -74.5 218t-200.5 81q-124 0 -199 -82t-75 -217v-659h-144v1077h144v-123q50 69 130 108.5t173 39.5q112 0 203 -53t139 -144
q52 95 143.5 146t206.5 51z" />
    <glyph glyph-name="n" unicode="n" horiz-adv-x="1124" 
d="M600 1102q173 0 287 -111.5t114 -277.5v-713h-143v659q0 137 -77.5 218t-207.5 81q-129 0 -207.5 -82t-78.5 -217v-659h-144v1077h144v-121q50 68 132.5 107t180.5 39z" />
    <glyph glyph-name="o" unicode="o" horiz-adv-x="1261" 
d="M631 -25q-233 0 -391 161t-158 405t157 402.5t392 158.5t392 -158.5t157 -402.5t-158 -405t-391 -161zM631 119q167 0 281 120.5t114 299.5t-114 299t-281 120t-281 -120t-114 -299t114 -299.5t281 -120.5z" />
    <glyph glyph-name="p" unicode="p" horiz-adv-x="1312" 
d="M688 1102q112 0 211.5 -41.5t173 -114.5t116 -178.5t42.5 -226.5q0 -162 -73 -292t-198 -202t-276 -72q-125 0 -231 51.5t-166 141.5v-578h-144v1487h144v-178q56 94 163.5 148.5t237.5 54.5zM684 119q170 0 281.5 119t111.5 301q0 181 -112 300t-281 119
q-171 0 -284 -119t-113 -300q0 -182 112.5 -301t284.5 -119z" />
    <glyph glyph-name="q" unicode="q" horiz-adv-x="1312" 
d="M1026 1077h143v-1487h-143v578q-60 -90 -166 -141.5t-231 -51.5q-151 0 -276 72t-198 202t-73 292q0 121 42.5 226.5t116 178.5t173 114.5t211.5 41.5q130 0 237.5 -54.5t163.5 -148.5v178zM629 119q172 0 284.5 119t112.5 301q0 181 -113 300t-284 119q-169 0 -281 -119
t-112 -300q0 -182 111.5 -301t281.5 -119z" />
    <glyph glyph-name="r" unicode="r" horiz-adv-x="716" 
d="M575 1090h80v-144h-106q-120 0 -191 -76t-71 -211v-659h-144v1077h142v-123q43 65 118.5 100.5t171.5 35.5z" />
    <glyph glyph-name="s" unicode="s" horiz-adv-x="946" 
d="M504 -25q-154 0 -272 78t-171 213l129 66q40 -103 124 -158t190 -55q101 0 164 48t63 122q0 58 -43.5 96.5t-132.5 63.5l-172 49q-270 77 -270 297q0 138 98.5 222.5t261.5 84.5q145 0 254.5 -72.5t155.5 -198.5l-129 -61q-35 91 -109 141t-172 50q-93 0 -150 -43.5
t-57 -112.5q0 -114 164 -164l180 -55q134 -41 204.5 -117.5t70.5 -183.5q0 -137 -106 -223.5t-275 -86.5z" />
    <glyph glyph-name="t" unicode="t" horiz-adv-x="759" 
d="M578 -12q-155 0 -238.5 84t-83.5 241v621h-215v143h65q67 0 108.5 44.5t41.5 113.5v199h143v-357h263v-143h-263v-621q0 -18 0.5 -29.5t4.5 -35t11 -39.5t21.5 -36t35.5 -32.5t54 -21t74 -8.5q48 0 78 6v-119q-41 -10 -100 -10z" />
    <glyph glyph-name="u" unicode="u" horiz-adv-x="1124" 
d="M838 1077h143v-1077h-143v121q-50 -68 -133 -107t-181 -39q-112 0 -204.5 56t-144.5 150t-52 204v692h143v-657q0 -138 78 -219.5t209 -81.5q128 0 206.5 82.5t78.5 218.5v657z" />
    <glyph glyph-name="v" unicode="v" horiz-adv-x="1085" 
d="M879 1077h165l-434 -1077h-137l-432 1077h166l336 -876z" />
    <glyph glyph-name="w" unicode="w" horiz-adv-x="1648" 
d="M1440 1077h168l-379 -1077h-137l-267 870l-268 -870h-139l-377 1077h168l278 -864l261 864h153l260 -860z" />
    <glyph glyph-name="x" unicode="x" horiz-adv-x="1042" 
d="M991 1077l-383 -538l383 -539h-172l-297 424l-299 -424h-172l383 539l-383 538h172l299 -424l297 424h172z" />
    <glyph glyph-name="y" unicode="y" horiz-adv-x="1126" 
d="M913 1079h172l-503 -1216q-15 -38 -26.5 -63t-31 -60t-39 -58.5t-48.5 -49t-61 -40t-76 -24.5t-95 -10q-76 0 -135 20v133q40 -10 106 -10q49 0 88 13t62 28.5t44 45.5t29.5 48t22.5 51l51 125l-432 1067h170l352 -870z" />
    <glyph glyph-name="z" unicode="z" horiz-adv-x="858" 
d="M20 0v123l623 811h-590v143h783v-123l-623 -811h625v-143h-818z" />
    <glyph glyph-name="braceleft" unicode="{" horiz-adv-x="768" 
d="M606 -287q-132 0 -213.5 79.5t-81.5 209.5v395q0 70 -33 110t-98 40h-57v143h57q65 0 98 40t33 110v397q0 130 81.5 209.5t213.5 79.5h70v-144h-70q-61 0 -97.5 -40t-33.5 -105v-389q9 -140 -98 -230q49 -40 75 -99.5t23 -125.5v-391q-3 -65 33.5 -105t97.5 -40h70v-144
h-70z" />
    <glyph glyph-name="bar" unicode="|" horiz-adv-x="696" 
d="M266 -389v2120h164v-2120h-164z" />
    <glyph glyph-name="braceright" unicode="}" horiz-adv-x="768" 
d="M92 -287v144h70q61 0 97.5 40t33.5 105v391q-3 66 23 125.5t75 99.5q-107 90 -98 230v389q3 65 -33.5 105t-97.5 40h-70v144h70q132 0 213.5 -79.5t81.5 -209.5v-397q0 -70 33 -110t98 -40h57v-143h-57q-65 0 -98 -40t-33 -110v-395q0 -130 -81.5 -209.5t-213.5 -79.5
h-70z" />
    <glyph glyph-name="asciitilde" unicode="~" horiz-adv-x="1382" 
d="M893 614q-50 0 -94.5 15t-77 36t-63.5 42t-66.5 36t-71.5 15q-60 0 -98.5 -35.5t-48.5 -101.5h-137q12 136 83 208t183 72q60 0 115 -22.5t89 -49t79 -49t89 -22.5q113 0 136 137h137q-12 -137 -77.5 -209t-176.5 -72z" />
    <glyph glyph-name="uni00A0" unicode="&#xa0;" horiz-adv-x="348" 
 />
    <glyph glyph-name="exclamdown" unicode="&#xa1;" horiz-adv-x="573" 
d="M205 1102h164v-225h-164v225zM215 664h143l11 -1088h-164z" />
    <glyph glyph-name="cent" unicode="&#xa2;" horiz-adv-x="1142" 
d="M680 123q91 12 161 65t109 136l131 -72q-48 -107 -157 -183.5t-244 -91.5v-245h-143v250q-201 32 -328 190t-127 381q0 222 127 378t328 189v250h143v-246q135 -15 244 -91t157 -183l-131 -72q-39 83 -109 136t-161 65v-856zM236 551q0 -157 84 -273t217 -149v844
q-134 -33 -217.5 -148t-83.5 -274z" />
    <glyph glyph-name="sterling" unicode="&#xa3;" horiz-adv-x="1607" 
d="M668 692v-549h694v-143h-1104v143h246v549h-268l40 144h228v270q0 198 129.5 321t339.5 123q173 0 302 -90t181 -248l-131 -61q-41 123 -132 189.5t-220 66.5q-143 0 -224 -80t-81 -221v-270h587l-41 -144h-546z" />
    <glyph glyph-name="currency" unicode="&#xa4;" horiz-adv-x="1306" 
d="M264 61l-100 101l155 155q-75 105 -75 234q0 124 75 233l-155 156l100 100l156 -155q110 76 233 76q125 0 234 -76l155 155l101 -100l-156 -156q76 -110 76 -233q0 -127 -76 -234l156 -155l-101 -101l-155 156q-107 -76 -234 -76q-126 0 -233 76zM653 297
q105 0 179.5 74.5t74.5 179.5q0 106 -75 181t-179 75q-106 0 -181 -75t-75 -181t75 -180t181 -74z" />
    <glyph glyph-name="yen" unicode="&#xa5;" horiz-adv-x="1333" 
d="M1282 1526l-496 -760h410v-143h-446v-164h446v-144h-446v-315h-164v315h-471v144h471v164h-471v143h434l-498 760h180l437 -666l434 666h180z" />
    <glyph glyph-name="brokenbar" unicode="&#xa6;" horiz-adv-x="696" 
d="M266 961v770h164v-770h-164zM266 -389v770h164v-770h-164z" />
    <glyph glyph-name="section" unicode="&#xa7;" horiz-adv-x="1267" 
d="M901 479q162 -90 162 -256q0 -140 -109 -227.5t-282 -87.5q-159 0 -281 79.5t-176 217.5l131 65q40 -103 126 -161t200 -58q104 0 170.5 49.5t66.5 126.5q0 58 -45 99t-139 67l-178 49q-279 77 -279 303q0 83 37.5 145.5t106.5 98.5q-144 87 -144 248q0 141 102 227
t269 86q149 0 262 -73.5t160 -202.5l-131 -62q-37 93 -113 144t-178 51q-98 0 -157.5 -44t-59.5 -116q0 -118 172 -170l186 -55q138 -41 210.5 -119.5t72.5 -187.5q0 -166 -162 -236zM594 586l131 -39q83 12 133.5 59t50.5 113q0 58 -45 99t-139 67l-156 43
q-67 -19 -107 -66t-40 -106q0 -118 172 -170z" />
    <glyph glyph-name="dieresis" unicode="&#xa8;" horiz-adv-x="663" 
d="M160 1311q-51 0 -85 34t-34 85q0 50 34 83t85 33q50 0 83 -33t33 -83q0 -51 -33 -85t-83 -34zM506 1311q-51 0 -85 34t-34 85q0 48 34.5 82t84.5 34q47 0 82 -33.5t35 -82.5t-34.5 -84t-82.5 -35z" />
    <glyph glyph-name="copyright" unicode="&#xa9;" horiz-adv-x="1984" 
d="M993 -25q-161 0 -307 62t-251.5 167.5t-167.5 252t-62 307.5q0 159 62 304.5t166.5 251t251 168t308.5 62.5q160 0 306 -62.5t251.5 -168t167.5 -251t62 -304.5q0 -162 -62.5 -308.5t-168.5 -251.5t-251.5 -167t-304.5 -62zM993 119q132 0 251 50.5t205 136t136.5 205.5
t50.5 253q0 175 -85 323t-233 234t-325 86q-133 0 -253 -50.5t-205.5 -136.5t-136 -205t-50.5 -251q0 -134 50 -253.5t136 -205.5t205.5 -136t253.5 -50zM1004 334q-177 0 -294.5 122t-117.5 308t117.5 307t294.5 121q126 0 221 -62.5t127 -152.5l-123 -59
q-26 68 -84.5 109.5t-140.5 41.5q-121 0 -198 -85.5t-77 -219.5q0 -135 77 -221t198 -86q84 0 142 43t83 110l123 -61q-32 -91 -126.5 -153t-221.5 -62z" />
    <glyph glyph-name="ordfeminine" unicode="&#xaa;" horiz-adv-x="823" 
d="M422 1540q132 0 215.5 -75t83.5 -193v-520h-129v102q-40 -56 -103 -87.5t-135 -31.5q-121 0 -196.5 64.5t-75.5 167.5q0 84 63 141.5t181 83.5l262 59v21q0 64 -46 103.5t-120 39.5q-66 0 -118 -34t-75 -91l-118 62q35 85 121 136.5t190 51.5zM365 852q96 0 159.5 64.5
t63.5 162.5v66l-232 -53q-62 -14 -97.5 -47.5t-35.5 -79.5q0 -53 38 -83t104 -30z" />
    <glyph glyph-name="guillemotleft" unicode="&#xab;" horiz-adv-x="1294" 
d="M444 162l-311 389l311 389h185l-312 -389l312 -389h-185zM936 162l-311 389l311 389h184l-311 -389l311 -389h-184z" />
    <glyph glyph-name="logicalnot" unicode="&#xac;" horiz-adv-x="1269" 
d="M911 389v299h-706v154h860v-453h-154z" />
    <glyph glyph-name="uni00AD" unicode="&#xad;" horiz-adv-x="1105" 
d="M195 479v144h716v-144h-716z" />
    <glyph glyph-name="registered" unicode="&#xae;" horiz-adv-x="1984" 
d="M993 1550q160 0 306 -62.5t251.5 -168t167.5 -251t62 -304.5q0 -162 -62.5 -308.5t-168.5 -251.5t-251.5 -167t-304.5 -62q-161 0 -307 62t-251.5 167.5t-167.5 252t-62 307.5q0 159 62 304.5t166.5 251t251 168t308.5 62.5zM993 119q132 0 251 50.5t205 136t136.5 205.5
t50.5 253q0 175 -85 323t-233 234t-325 86q-133 0 -253 -50.5t-205.5 -136.5t-136 -205t-50.5 -251q0 -134 50 -253.5t136 -205.5t205.5 -136t253.5 -50zM1325 920q0 -85 -41.5 -145.5t-114.5 -90.5l193 -336h-158l-174 311h-176v-311h-137v834h317q131 0 211 -70.5
t80 -191.5zM854 1061v-281h182q67 0 108.5 39t41.5 101q0 63 -41.5 102t-108.5 39h-182z" />
    <glyph glyph-name="macron" unicode="&#xaf;" horiz-adv-x="526" 
d="M41 1311v121h444v-121h-444z" />
    <glyph glyph-name="degree" unicode="&#xb0;" horiz-adv-x="1060" 
d="M530 901q-134 0 -229.5 94.5t-95.5 229.5t95 230t230 95t230.5 -95t95.5 -230q0 -134 -96 -229t-230 -95zM528 1028q80 0 139.5 59t59.5 138q0 81 -59.5 139.5t-139.5 58.5t-137 -58t-57 -140q0 -80 57.5 -138.5t136.5 -58.5z" />
    <glyph glyph-name="plusminus" unicode="&#xb1;" horiz-adv-x="1249" 
d="M549 334v354h-354v154h354v352h153v-352h353v-154h-353v-354h-153zM195 0v154h860v-154h-860z" />
    <glyph glyph-name="uni00B2" unicode="&#xb2;" horiz-adv-x="837" 
d="M106 610v103l250 262q119 126 158 182.5t39 114.5q0 66 -39 103.5t-108 37.5t-118.5 -35t-72.5 -100l-113 61q32 93 115 147t195 54q125 0 204.5 -71t79.5 -185q0 -76 -44 -150t-138 -171l-223 -232h424v-121h-609z" />
    <glyph glyph-name="uni00B3" unicode="&#xb3;" horiz-adv-x="854" 
d="M500 1176q103 -15 167 -92.5t64 -184.5q0 -131 -90.5 -217t-228.5 -86q-111 0 -193.5 54.5t-116.5 146.5l113 61q24 -62 75 -98.5t122 -36.5q78 0 128 48t50 124t-50 123t-130 47q-50 0 -84 -12l-25 71l236 279l-392 2v121h551v-115z" />
    <glyph glyph-name="acute" unicode="&#xb4;" horiz-adv-x="397" 
d="M41 1311l160 311h155l-186 -311h-129z" />
    <glyph glyph-name="uni00B5" unicode="&#xb5;" horiz-adv-x="1101" 
d="M123 -410v1512h135v-723q0 -126 71.5 -201.5t190.5 -75.5q78 0 160.5 31.5t142.5 83.5v885h135v-1102h-135v76q-67 -46 -152.5 -73.5t-166.5 -27.5q-149 0 -246 88v-473h-135z" />
    <glyph glyph-name="paragraph" unicode="&#xb6;" horiz-adv-x="794" 
d="M133 1196q0 137 94.5 233.5t229.5 96.5h164v-1731h-164v1071q-135 0 -229.5 96.5t-94.5 233.5z" />
    <glyph glyph-name="periodcentered" unicode="&#xb7;" horiz-adv-x="593" 
d="M215 651v226h164v-226h-164z" />
    <glyph glyph-name="cedilla" unicode="&#xb8;" horiz-adv-x="532" 
d="M270 -422q-134 0 -229 92l51 84q28 -30 73 -48.5t93 -18.5q54 0 85.5 28.5t31.5 75.5q0 60 -53.5 116.5t-155.5 98.5l78 25q118 -40 183 -109t65 -155q0 -87 -64 -138t-158 -51z" />
    <glyph glyph-name="uni00B9" unicode="&#xb9;" horiz-adv-x="684" 
d="M233 610v793h-172v123h316v-916h-144z" />
    <glyph glyph-name="ordmasculine" unicode="&#xba;" horiz-adv-x="960" 
d="M481 735q-170 0 -284.5 115t-114.5 289t114.5 287.5t284.5 113.5q169 0 283.5 -114t114.5 -287q0 -174 -115 -289t-283 -115zM481 862q109 0 183.5 78.5t74.5 196.5t-74.5 197t-183.5 79q-110 0 -184 -79t-74 -197t74 -196.5t184 -78.5z" />
    <glyph glyph-name="guillemotright" unicode="&#xbb;" horiz-adv-x="1294" 
d="M174 162l311 389l-311 389h184l312 -389l-312 -389h-184zM666 162l311 389l-311 389h184l311 -389l-311 -389h-184z" />
    <glyph glyph-name="onequarter" unicode="&#xbc;" horiz-adv-x="2025" 
d="M233 610v793h-172v123h316v-916h-144zM479 0l692 1526h156l-692 -1526h-156zM1923 326v-119h-133v-207h-137v207h-449v119l443 589h143v-589h133zM1348 326h305v411z" />
    <glyph glyph-name="onehalf" unicode="&#xbd;" horiz-adv-x="1959" 
d="M233 610v793h-172v123h316v-916h-144zM479 0l692 1526h156l-692 -1526h-156zM1229 0v102l250 263q118 125 157 182t39 115q0 66 -39 103.5t-108 37.5t-118.5 -35t-72.5 -100l-112 61q32 93 114.5 147t194.5 54q125 0 205 -71.5t80 -184.5q0 -76 -44.5 -150.5
t-138.5 -171.5l-223 -231h424v-121h-608z" />
    <glyph glyph-name="threequarters" unicode="&#xbe;" horiz-adv-x="2195" 
d="M500 1176q103 -15 167 -92.5t64 -184.5q0 -131 -90.5 -217t-228.5 -86q-111 0 -193.5 54.5t-116.5 146.5l113 61q24 -62 75 -98.5t122 -36.5q78 0 128 48t50 124t-50 123t-130 47q-50 0 -84 -12l-25 71l236 279l-392 2v121h551v-115zM1341 1526h156l-692 -1526h-156z
M1960 326h133v-119h-133v-207h-137v207h-449v119l443 589h143v-589zM1823 326v411l-305 -411h305z" />
    <glyph glyph-name="questiondown" unicode="&#xbf;" horiz-adv-x="1171" 
d="M739 1550v-225h-164v225h164zM745 1112v-20q0 -66 -18 -123.5t-55 -109.5t-68.5 -86t-83.5 -83q-99 -95 -131 -136q-72 -92 -72 -187t63.5 -159.5t188.5 -64.5q262 0 338 256l131 -61q-47 -156 -172.5 -247t-296.5 -91q-189 0 -302 107t-113 260q0 34 7 66.5t16 58.5
t28 56.5t33 50t41 49t42 44.5t46.5 46t44.5 44q82 82 126 153t44 157v20h163z" />
    <glyph glyph-name="Agrave" unicode="&#xc0;" horiz-adv-x="1398" 
d="M768 1735h-129l-186 311h155zM786 1526l562 -1526h-172l-134 377h-686l-133 -377h-172l561 1526h174zM408 520h583l-291 823z" />
    <glyph glyph-name="Aacute" unicode="&#xc1;" horiz-adv-x="1398" 
d="M954 2046l-186 -311h-129l160 311h155zM786 1526l562 -1526h-172l-134 377h-686l-133 -377h-172l561 1526h174zM408 520h583l-291 823z" />
    <glyph glyph-name="Acircumflex" unicode="&#xc2;" horiz-adv-x="1398" 
d="M700 1962l-168 -227h-139l232 311h151l234 -311h-140zM786 1526l562 -1526h-172l-134 377h-686l-133 -377h-172l561 1526h174zM408 520h583l-291 823z" />
    <glyph glyph-name="Atilde" unicode="&#xc3;" horiz-adv-x="1398" 
d="M580 1827q-29 0 -52.5 -19.5t-27.5 -62.5h-119q4 89 59 143t133 54q40 0 77.5 -14.5t61.5 -32t54.5 -32t58.5 -14.5q29 0 52.5 20.5t27.5 63.5h117q-4 -95 -59.5 -146.5t-131.5 -51.5q-40 0 -77.5 14.5t-61.5 31.5t-54 31.5t-58 14.5zM786 1526l562 -1526h-172l-134 377
h-686l-133 -377h-172l561 1526h174zM408 520h583l-291 823z" />
    <glyph glyph-name="Adieresis" unicode="&#xc4;" horiz-adv-x="1398" 
d="M528 1735q-51 0 -84.5 33.5t-33.5 84.5q0 50 33.5 83.5t84.5 33.5q50 0 83.5 -34t33.5 -83q0 -51 -33.5 -84.5t-83.5 -33.5zM874 1735q-51 0 -84.5 33.5t-33.5 84.5q0 48 34 82.5t84 34.5q47 0 82 -34t35 -83t-34.5 -83.5t-82.5 -34.5zM786 1526l562 -1526h-172l-134 377
h-686l-133 -377h-172l561 1526h174zM408 520h583l-291 823z" />
    <glyph glyph-name="Aring" unicode="&#xc5;" horiz-adv-x="1398" 
d="M702 1735q-84 0 -142 56.5t-58 139.5q0 82 57 138.5t143 56.5q85 0 143 -56.5t58 -138.5t-58 -139t-143 -57zM702 2028q-42 0 -71 -28.5t-29 -68.5q0 -41 29.5 -69.5t70.5 -28.5q42 0 71.5 28.5t29.5 69.5q0 40 -30 68.5t-71 28.5zM786 1526l562 -1526h-172l-134 377
h-686l-133 -377h-172l561 1526h174zM408 520h583l-291 823z" />
    <glyph glyph-name="AE" unicode="&#xc6;" horiz-adv-x="2027" 
d="M51 0l561 1526h1293v-144h-820v-546h779v-144h-779v-549h820v-143h-983v377h-566l-133 -377h-172zM408 520h514v862h-207z" />
    <glyph glyph-name="Ccedilla" unicode="&#xc7;" horiz-adv-x="1570" 
d="M856 119q164 0 285.5 82.5t179.5 224.5l147 -72q-53 -131 -183.5 -235t-307.5 -133q145 -85 145 -219q0 -87 -64 -138t-157 -51q-134 0 -229 92l51 84q28 -30 73 -48.5t93 -18.5q54 0 85.5 28.5t31.5 75.5q0 103 -146 184h-4q-212 0 -382 101t-265.5 281t-95.5 405
t95.5 405.5t265.5 281.5t382 101q112 0 214.5 -32.5t179.5 -87t133 -121.5t85 -140l-147 -71q-58 143 -179.5 226t-285.5 83q-167 0 -299.5 -81.5t-206.5 -229t-74 -334.5q0 -283 163 -463t417 -180z" />
    <glyph glyph-name="Egrave" unicode="&#xc8;" horiz-adv-x="1269" 
d="M702 1735h-129l-186 311h156zM164 0v1526h983v-144h-819v-546h778v-144h-778v-549h819v-143h-983z" />
    <glyph glyph-name="Eacute" unicode="&#xc9;" horiz-adv-x="1269" 
d="M573 1735l160 311h156l-187 -311h-129zM164 0v1526h983v-144h-819v-546h778v-144h-778v-549h819v-143h-983z" />
    <glyph glyph-name="Ecircumflex" unicode="&#xca;" horiz-adv-x="1269" 
d="M559 2046h152l233 -311h-139l-170 227l-168 -227h-139zM164 0v1526h983v-144h-819v-546h778v-144h-778v-549h819v-143h-983z" />
    <glyph glyph-name="Edieresis" unicode="&#xcb;" horiz-adv-x="1269" 
d="M463 1735q-51 0 -85 33.5t-34 84.5q0 50 34 83.5t85 33.5q49 0 83 -34t34 -83q0 -51 -33.5 -84.5t-83.5 -33.5zM809 1735q-51 0 -85 33.5t-34 84.5q0 48 34.5 82.5t84.5 34.5q47 0 82 -34t35 -83t-34.5 -83.5t-82.5 -34.5zM164 0v1526h983v-144h-819v-546h778v-144h-778
v-549h819v-143h-983z" />
    <glyph glyph-name="Igrave" unicode="&#xcc;" horiz-adv-x="491" 
d="M313 1735h-129l-186 311h156zM164 0v1526h164v-1526h-164z" />
    <glyph glyph-name="Iacute" unicode="&#xcd;" horiz-adv-x="491" 
d="M184 1735l160 311h156l-187 -311h-129zM164 0v1526h164v-1526h-164z" />
    <glyph glyph-name="Icircumflex" unicode="&#xce;" horiz-adv-x="491" 
d="M170 2046h152l233 -311h-139l-170 227l-168 -227h-139zM164 0v1526h164v-1526h-164z" />
    <glyph glyph-name="Idieresis" unicode="&#xcf;" horiz-adv-x="491" 
d="M74 1735q-51 0 -85 33.5t-34 84.5q0 50 34 83.5t85 33.5q49 0 82.5 -33.5t33.5 -83.5q0 -51 -33 -84.5t-83 -33.5zM420 1735q-51 0 -85 33.5t-34 84.5q0 48 34.5 82.5t84.5 34.5q47 0 82 -34t35 -83t-34.5 -83.5t-82.5 -34.5zM164 0v1526h164v-1526h-164z" />
    <glyph glyph-name="Eth" unicode="&#xd0;" horiz-adv-x="1525" 
d="M164 0v692h-242v144h242v690h502q340 0 543.5 -207t203.5 -555q0 -347 -203.5 -555.5t-543.5 -208.5h-502zM328 143h338q262 0 418.5 169.5t156.5 451.5q0 280 -157 449t-418 169h-338v-546h407v-144h-407v-549z" />
    <glyph glyph-name="Ntilde" unicode="&#xd1;" horiz-adv-x="1474" 
d="M616 1827q-29 0 -52 -19.5t-27 -62.5h-119q4 89 59 143t133 54q40 0 77.5 -14.5t61.5 -32t54.5 -32t58.5 -14.5q29 0 52.5 20.5t27.5 63.5h117q-4 -95 -59.5 -146.5t-131.5 -51.5q-51 0 -96 23t-83.5 46t-72.5 23zM1147 1526h164v-1526h-144l-839 1221v-1221h-164v1526
h143l840 -1213v1213z" />
    <glyph glyph-name="Ograve" unicode="&#xd2;" horiz-adv-x="1753" 
d="M944 1735h-129l-186 311h155zM877 -25q-157 0 -298 59t-243.5 162t-162.5 251t-60 317t60 316t162.5 249.5t243.5 161.5t298 59t297.5 -59t243 -162t162.5 -250t60 -315q0 -169 -60 -316.5t-162.5 -250.5t-243 -162.5t-297.5 -59.5zM877 129q129 0 241.5 50t191 136
t123 202.5t44.5 246.5q0 129 -44.5 245t-122.5 201.5t-190.5 136t-242.5 50.5q-173 0 -311.5 -86t-214 -230.5t-75.5 -316.5q0 -174 76 -319t214.5 -230.5t310.5 -85.5z" />
    <glyph glyph-name="Oacute" unicode="&#xd3;" horiz-adv-x="1753" 
d="M815 1735l160 311h155l-186 -311h-129zM877 -25q-157 0 -298 59t-243.5 162t-162.5 251t-60 317t60 316t162.5 249.5t243.5 161.5t298 59t297.5 -59t243 -162t162.5 -250t60 -315q0 -169 -60 -316.5t-162.5 -250.5t-243 -162.5t-297.5 -59.5zM877 129q129 0 241.5 50
t191 136t123 202.5t44.5 246.5q0 129 -44.5 245t-122.5 201.5t-190.5 136t-242.5 50.5q-173 0 -311.5 -86t-214 -230.5t-75.5 -316.5q0 -174 76 -319t214.5 -230.5t310.5 -85.5z" />
    <glyph glyph-name="Ocircumflex" unicode="&#xd4;" horiz-adv-x="1753" 
d="M801 2046h151l234 -311h-139l-170 227l-168 -227h-140zM877 -25q-157 0 -298 59t-243.5 162t-162.5 251t-60 317t60 316t162.5 249.5t243.5 161.5t298 59t297.5 -59t243 -162t162.5 -250t60 -315q0 -169 -60 -316.5t-162.5 -250.5t-243 -162.5t-297.5 -59.5zM877 129
q129 0 241.5 50t191 136t123 202.5t44.5 246.5q0 129 -44.5 245t-122.5 201.5t-190.5 136t-242.5 50.5q-173 0 -311.5 -86t-214 -230.5t-75.5 -316.5q0 -174 76 -319t214.5 -230.5t310.5 -85.5z" />
    <glyph glyph-name="Otilde" unicode="&#xd5;" horiz-adv-x="1753" 
d="M1008 1735q-51 0 -96 23t-83.5 46t-72.5 23q-29 0 -52.5 -19.5t-27.5 -62.5h-119q4 89 59.5 143t133.5 54q40 0 77.5 -14.5t61.5 -32t54 -32t58 -14.5q29 0 52.5 20.5t27.5 63.5h117q-4 -95 -59 -146.5t-131 -51.5zM877 -25q-157 0 -298 59t-243.5 162t-162.5 251
t-60 317t60 316t162.5 249.5t243.5 161.5t298 59t297.5 -59t243 -162t162.5 -250t60 -315q0 -169 -60 -316.5t-162.5 -250.5t-243 -162.5t-297.5 -59.5zM877 129q129 0 241.5 50t191 136t123 202.5t44.5 246.5q0 129 -44.5 245t-122.5 201.5t-190.5 136t-242.5 50.5
q-173 0 -311.5 -86t-214 -230.5t-75.5 -316.5q0 -174 76 -319t214.5 -230.5t310.5 -85.5z" />
    <glyph glyph-name="Odieresis" unicode="&#xd6;" horiz-adv-x="1753" 
d="M705 1735q-51 0 -85 33.5t-34 84.5q0 50 34 83.5t85 33.5q49 0 82.5 -33.5t33.5 -83.5q0 -51 -33 -84.5t-83 -33.5zM1051 1735q-51 0 -85 33.5t-34 84.5q0 48 34.5 82.5t84.5 34.5q47 0 81.5 -34t34.5 -83t-34 -83.5t-82 -34.5zM877 -25q-157 0 -298 59t-243.5 162
t-162.5 251t-60 317t60 316t162.5 249.5t243.5 161.5t298 59t297.5 -59t243 -162t162.5 -250t60 -315q0 -169 -60 -316.5t-162.5 -250.5t-243 -162.5t-297.5 -59.5zM877 129q129 0 241.5 50t191 136t123 202.5t44.5 246.5q0 129 -44.5 245t-122.5 201.5t-190.5 136
t-242.5 50.5q-173 0 -311.5 -86t-214 -230.5t-75.5 -316.5q0 -174 76 -319t214.5 -230.5t310.5 -85.5z" />
    <glyph glyph-name="multiply" unicode="&#xd7;" horiz-adv-x="1196" 
d="M303 362l-108 109l294 295l-292 293l108 108l293 -293l293 293l108 -108l-292 -293l294 -295l-108 -109l-295 295z" />
    <glyph glyph-name="Oslash" unicode="&#xd8;" horiz-adv-x="1753" 
d="M1640 1425l-163 -163q163 -213 163 -498q0 -169 -60 -316.5t-162.5 -250.5t-243 -162.5t-297.5 -59.5q-143 0 -272 48t-230 137l-162 -160l-100 100l163 164q-163 213 -163 500q0 169 60 316t162.5 249.5t243.5 161.5t298 59q293 0 501 -186l162 162zM276 764
q0 -213 117 -385l873 874q-164 144 -389 144q-173 0 -311.5 -86t-214 -230.5t-75.5 -316.5zM1477 764q0 220 -117 383l-873 -873q161 -145 390 -145q129 0 241.5 50t191 136t123 202.5t44.5 246.5z" />
    <glyph glyph-name="Ugrave" unicode="&#xd9;" horiz-adv-x="1413" 
d="M774 1735h-129l-186 311h155zM1083 1526h166v-1049q0 -228 -147.5 -365t-394.5 -137t-395 136.5t-148 365.5v1049h166v-1049q0 -155 107.5 -256.5t269.5 -101.5q160 0 268 102.5t108 255.5v1049z" />
    <glyph glyph-name="Uacute" unicode="&#xda;" horiz-adv-x="1413" 
d="M645 1735l160 311h156l-187 -311h-129zM1083 1526h166v-1049q0 -228 -147.5 -365t-394.5 -137t-395 136.5t-148 365.5v1049h166v-1049q0 -155 107.5 -256.5t269.5 -101.5q160 0 268 102.5t108 255.5v1049z" />
    <glyph glyph-name="Ucircumflex" unicode="&#xdb;" horiz-adv-x="1413" 
d="M631 2046h151l234 -311h-139l-170 227l-168 -227h-140zM1083 1526h166v-1049q0 -228 -147.5 -365t-394.5 -137t-395 136.5t-148 365.5v1049h166v-1049q0 -155 107.5 -256.5t269.5 -101.5q160 0 268 102.5t108 255.5v1049z" />
    <glyph glyph-name="Udieresis" unicode="&#xdc;" horiz-adv-x="1413" 
d="M535 1735q-51 0 -85 33.5t-34 84.5q0 50 34 83.5t85 33.5q49 0 82.5 -33.5t33.5 -83.5q0 -51 -33 -84.5t-83 -33.5zM881 1735q-51 0 -85 33.5t-34 84.5q0 48 34.5 82.5t84.5 34.5q47 0 81.5 -34t34.5 -83t-34 -83.5t-82 -34.5zM1083 1526h166v-1049q0 -228 -147.5 -365
t-394.5 -137t-395 136.5t-148 365.5v1049h166v-1049q0 -155 107.5 -256.5t269.5 -101.5q160 0 268 102.5t108 255.5v1049z" />
    <glyph glyph-name="Yacute" unicode="&#xdd;" horiz-adv-x="1333" 
d="M922 2046l-187 -311h-129l160 311h156zM1102 1526h180l-532 -817v-709h-164v709l-535 817h180l437 -666z" />
    <glyph glyph-name="Thorn" unicode="&#xde;" horiz-adv-x="1300" 
d="M164 0v1526h164v-295h360q233 0 376.5 -129t143.5 -338t-142.5 -337t-377.5 -128h-360v-299h-164zM328 442h360q157 0 252.5 89t95.5 235q0 145 -95.5 233t-252.5 88h-360v-645z" />
    <glyph glyph-name="germandbls" unicode="&#xdf;" horiz-adv-x="1191" 
d="M164 -328v1450q0 175 121.5 289.5t320.5 114.5q202 0 322.5 -105t120.5 -278q0 -104 -45.5 -187.5t-129.5 -134.5q111 -57 173.5 -157t62.5 -224q0 -202 -134 -321t-358 -119h-143v143h143q145 0 232.5 81.5t87.5 215.5t-87.5 215.5t-232.5 81.5h-143v144h131
q123 0 197 69t74 183q0 113 -74 181t-197 68q-122 0 -200 -73.5t-78 -186.5v-1450h-164z" />
    <glyph glyph-name="agrave" unicode="&#xe0;" horiz-adv-x="1056" 
d="M596 1286h-129l-186 311h155zM547 1102q180 0 293.5 -102.5t113.5 -264.5v-735h-143v166q-51 -85 -147 -138t-201 -53q-170 0 -275.5 90.5t-105.5 235.5q0 117 90.5 198.5t255.5 118.5l383 89v28q0 100 -73.5 161.5t-190.5 61.5q-100 0 -177 -48t-116 -130l-131 70
q47 107 165.5 179.5t258.5 72.5zM463 117q152 0 250 102t98 258v105l-346 -80q-104 -24 -166.5 -78t-62.5 -125q0 -83 61.5 -132.5t165.5 -49.5z" />
    <glyph glyph-name="aacute" unicode="&#xe1;" horiz-adv-x="1056" 
d="M782 1597l-186 -311h-129l160 311h155zM547 1102q180 0 293.5 -102.5t113.5 -264.5v-735h-143v166q-51 -85 -147 -138t-201 -53q-170 0 -275.5 90.5t-105.5 235.5q0 117 90.5 198.5t255.5 118.5l383 89v28q0 100 -73.5 161.5t-190.5 61.5q-100 0 -177 -48t-116 -130
l-131 70q47 107 165.5 179.5t258.5 72.5zM463 117q152 0 250 102t98 258v105l-346 -80q-104 -24 -166.5 -78t-62.5 -125q0 -83 61.5 -132.5t165.5 -49.5z" />
    <glyph glyph-name="acircumflex" unicode="&#xe2;" horiz-adv-x="1056" 
d="M528 1513l-168 -227h-139l232 311h151l234 -311h-140zM547 1102q180 0 293.5 -102.5t113.5 -264.5v-735h-143v166q-51 -85 -147 -138t-201 -53q-170 0 -275.5 90.5t-105.5 235.5q0 117 90.5 198.5t255.5 118.5l383 89v28q0 100 -73.5 161.5t-190.5 61.5q-100 0 -177 -48
t-116 -130l-131 70q47 107 165.5 179.5t258.5 72.5zM463 117q152 0 250 102t98 258v105l-346 -80q-104 -24 -166.5 -78t-62.5 -125q0 -83 61.5 -132.5t165.5 -49.5z" />
    <glyph glyph-name="atilde" unicode="&#xe3;" horiz-adv-x="1056" 
d="M408 1378q-29 0 -52.5 -19.5t-27.5 -62.5h-119q4 89 59 143t133 54q51 0 96 -23t83.5 -46t72.5 -23q29 0 52.5 20.5t27.5 63.5h117q-4 -95 -59.5 -147t-131.5 -52q-40 0 -77.5 14.5t-61.5 31.5t-54 31.5t-58 14.5zM547 1102q180 0 293.5 -102.5t113.5 -264.5v-735h-143
v166q-51 -85 -147 -138t-201 -53q-170 0 -275.5 90.5t-105.5 235.5q0 117 90.5 198.5t255.5 118.5l383 89v28q0 100 -73.5 161.5t-190.5 61.5q-100 0 -177 -48t-116 -130l-131 70q47 107 165.5 179.5t258.5 72.5zM463 117q152 0 250 102t98 258v105l-346 -80
q-104 -24 -166.5 -78t-62.5 -125q0 -83 61.5 -132.5t165.5 -49.5z" />
    <glyph glyph-name="adieresis" unicode="&#xe4;" horiz-adv-x="1056" 
d="M356 1286q-51 0 -84.5 34t-33.5 85q0 50 33.5 83.5t84.5 33.5q50 0 83.5 -34t33.5 -83q0 -51 -33.5 -85t-83.5 -34zM702 1286q-51 0 -84.5 34t-33.5 85q0 48 34 82.5t84 34.5q47 0 82 -34t35 -83t-34.5 -84t-82.5 -35zM547 1102q180 0 293.5 -102.5t113.5 -264.5v-735
h-143v166q-51 -85 -147 -138t-201 -53q-170 0 -275.5 90.5t-105.5 235.5q0 117 90.5 198.5t255.5 118.5l383 89v28q0 100 -73.5 161.5t-190.5 61.5q-100 0 -177 -48t-116 -130l-131 70q47 107 165.5 179.5t258.5 72.5zM463 117q152 0 250 102t98 258v105l-346 -80
q-104 -24 -166.5 -78t-62.5 -125q0 -83 61.5 -132.5t165.5 -49.5z" />
    <glyph glyph-name="aring" unicode="&#xe5;" horiz-adv-x="1056" 
d="M530 1286q-84 0 -142 57t-58 140q0 82 57 138t143 56q85 0 143 -56t58 -138t-58.5 -139.5t-142.5 -57.5zM530 1579q-42 0 -71 -28t-29 -68q0 -41 29.5 -70t70.5 -29t71 29t30 70q0 40 -30 68t-71 28zM547 1102q180 0 293.5 -102.5t113.5 -264.5v-735h-143v166
q-51 -85 -147 -138t-201 -53q-170 0 -275.5 90.5t-105.5 235.5q0 117 90.5 198.5t255.5 118.5l383 89v28q0 100 -73.5 161.5t-190.5 61.5q-100 0 -177 -48t-116 -130l-131 70q47 107 165.5 179.5t258.5 72.5zM463 117q152 0 250 102t98 258v105l-346 -80
q-104 -24 -166.5 -78t-62.5 -125q0 -83 61.5 -132.5t165.5 -49.5z" />
    <glyph glyph-name="ae" unicode="&#xe6;" horiz-adv-x="1896" 
d="M1835 590q0 -49 -8 -96h-864q3 -170 116 -277.5t269 -107.5q120 0 205.5 56.5t132.5 151.5l131 -71q-54 -116 -179.5 -193.5t-289.5 -77.5q-118 0 -220 45t-174 127v-147h-143v164q-53 -87 -149 -138t-209 -51q-156 0 -263.5 91.5t-107.5 230.5q0 239 350 321l379 89v28
q0 100 -72.5 161.5t-187.5 61.5q-100 0 -176.5 -48t-114.5 -130l-131 70q47 107 164 179.5t258 72.5q128 0 225.5 -55.5t143.5 -151.5q71 98 178.5 152.5t236.5 54.5q113 0 208.5 -42.5t158.5 -113.5t98 -163t35 -193zM967 627h706q0 141 -103 241.5t-241 100.5
q-137 0 -241 -97.5t-121 -244.5zM467 117q150 0 247 102t97 258v105l-344 -80q-108 -25 -169.5 -78.5t-61.5 -128.5q0 -79 63 -128.5t168 -49.5z" />
    <glyph glyph-name="ccedilla" unicode="&#xe7;" horiz-adv-x="1118" 
d="M612 119q107 0 188.5 53.5t125.5 146.5l131 -71q-42 -92 -130 -162.5t-200 -97.5q74 -41 113 -98t39 -123q0 -87 -64 -138t-158 -51q-134 0 -229 92l51 84q28 -30 73 -48.5t93 -18.5q54 0 85.5 28.5t31.5 75.5q0 103 -146 184h-4q-228 0 -379 161.5t-151 404.5t150.5 402
t379.5 159q148 0 270 -77.5t175 -195.5l-131 -69q-44 91 -126 144.5t-188 53.5q-162 0 -269 -119t-107 -300q0 -179 107.5 -299.5t268.5 -120.5z" />
    <glyph glyph-name="egrave" unicode="&#xe8;" horiz-adv-x="1157" 
d="M668 1286h-129l-187 311h156zM1096 590q0 -44 -9 -96h-854q3 -172 114.5 -278.5t266.5 -106.5q118 0 201.5 56.5t130.5 151.5l131 -71q-54 -116 -179 -193.5t-284 -77.5q-149 0 -270.5 72.5t-191.5 202.5t-70 291q0 244 147.5 402.5t370.5 158.5q149 0 264 -72.5
t173.5 -188t58.5 -251.5zM236 627h698q0 144 -102 243t-232 99q-139 0 -243 -94t-121 -248z" />
    <glyph glyph-name="eacute" unicode="&#xe9;" horiz-adv-x="1157" 
d="M854 1597l-186 -311h-129l159 311h156zM1096 590q0 -44 -9 -96h-854q3 -172 114.5 -278.5t266.5 -106.5q118 0 201.5 56.5t130.5 151.5l131 -71q-54 -116 -179 -193.5t-284 -77.5q-149 0 -270.5 72.5t-191.5 202.5t-70 291q0 244 147.5 402.5t370.5 158.5
q149 0 264 -72.5t173.5 -188t58.5 -251.5zM236 627h698q0 144 -102 243t-232 99q-139 0 -243 -94t-121 -248z" />
    <glyph glyph-name="ecircumflex" unicode="&#xea;" horiz-adv-x="1157" 
d="M600 1513l-168 -227h-139l231 311h152l233 -311h-139zM1096 590q0 -44 -9 -96h-854q3 -172 114.5 -278.5t266.5 -106.5q118 0 201.5 56.5t130.5 151.5l131 -71q-54 -116 -179 -193.5t-284 -77.5q-149 0 -270.5 72.5t-191.5 202.5t-70 291q0 244 147.5 402.5t370.5 158.5
q149 0 264 -72.5t173.5 -188t58.5 -251.5zM236 627h698q0 144 -102 243t-232 99q-139 0 -243 -94t-121 -248z" />
    <glyph glyph-name="edieresis" unicode="&#xeb;" horiz-adv-x="1157" 
d="M428 1286q-51 0 -85 34t-34 85q0 50 34 83.5t85 33.5q50 0 83.5 -34t33.5 -83q0 -51 -33.5 -85t-83.5 -34zM774 1286q-51 0 -85 34t-34 85q0 48 34.5 82.5t84.5 34.5q47 0 82 -34t35 -83t-34.5 -84t-82.5 -35zM1096 590q0 -44 -9 -96h-854q3 -172 114.5 -278.5
t266.5 -106.5q118 0 201.5 56.5t130.5 151.5l131 -71q-54 -116 -179 -193.5t-284 -77.5q-149 0 -270.5 72.5t-191.5 202.5t-70 291q0 244 147.5 402.5t370.5 158.5q149 0 264 -72.5t173.5 -188t58.5 -251.5zM236 627h698q0 144 -102 243t-232 99q-139 0 -243 -94t-121 -248z
" />
    <glyph glyph-name="igrave" unicode="&#xec;" horiz-adv-x="471" 
d="M303 1286h-129l-186 311h155zM164 0v1077h143v-1077h-143z" />
    <glyph glyph-name="iacute" unicode="&#xed;" horiz-adv-x="471" 
d="M174 1286l160 311h155l-186 -311h-129zM164 0v1077h143v-1077h-143z" />
    <glyph glyph-name="icircumflex" unicode="&#xee;" horiz-adv-x="471" 
d="M160 1597h151l234 -311h-139l-170 227l-168 -227h-140zM164 0v1077h143v-1077h-143z" />
    <glyph glyph-name="idieresis" unicode="&#xef;" horiz-adv-x="471" 
d="M63 1286q-51 0 -84.5 34t-33.5 85q0 50 33.5 83.5t84.5 33.5q49 0 83 -34t34 -83q0 -51 -33.5 -85t-83.5 -34zM410 1286q-51 0 -85 34t-34 85q0 48 34.5 82.5t84.5 34.5q47 0 81.5 -34t34.5 -83t-34.5 -84t-81.5 -35zM164 0v1077h143v-1077h-143z" />
    <glyph glyph-name="eth" unicode="&#xf0;" horiz-adv-x="1261" 
d="M918 1368q124 -148 193 -348.5t69 -413.5q0 -161 -41 -284t-114.5 -198t-168.5 -112t-209 -37q-249 0 -407 158t-158 412q0 159 65 286.5t191 203t293 75.5q200 0 317 -115q-46 193 -168 324l-315 -115v121l215 78q-148 102 -332 102q-109 0 -223 -43l-25 135
q129 52 254 52q265 0 475 -191l246 90v-123zM643 119q172 0 277.5 115.5t105.5 297.5q0 194 -107 314.5t-288 120.5q-167 0 -281 -122t-114 -304q0 -181 115 -301.5t292 -120.5z" />
    <glyph glyph-name="ntilde" unicode="&#xf1;" horiz-adv-x="1124" 
d="M479 1378q-29 0 -52.5 -19.5t-27.5 -62.5h-118q4 89 59 143t133 54q51 0 96 -23t83.5 -46t72.5 -23q29 0 52.5 20.5t27.5 63.5h117q-4 -95 -59.5 -147t-131.5 -52q-51 0 -96 23t-83.5 46t-72.5 23zM600 1102q173 0 287 -111.5t114 -277.5v-713h-143v659q0 137 -77.5 218
t-207.5 81q-129 0 -207.5 -82t-78.5 -217v-659h-144v1077h144v-121q50 68 132.5 107t180.5 39z" />
    <glyph glyph-name="ograve" unicode="&#xf2;" horiz-adv-x="1261" 
d="M698 1286h-129l-186 311h156zM631 -25q-233 0 -391 161t-158 405t157 402.5t392 158.5t392 -158.5t157 -402.5t-158 -405t-391 -161zM631 119q167 0 281 120.5t114 299.5t-114 299t-281 120t-281 -120t-114 -299t114 -299.5t281 -120.5z" />
    <glyph glyph-name="oacute" unicode="&#xf3;" horiz-adv-x="1261" 
d="M569 1286l160 311h156l-187 -311h-129zM631 -25q-233 0 -391 161t-158 405t157 402.5t392 158.5t392 -158.5t157 -402.5t-158 -405t-391 -161zM631 119q167 0 281 120.5t114 299.5t-114 299t-281 120t-281 -120t-114 -299t114 -299.5t281 -120.5z" />
    <glyph glyph-name="ocircumflex" unicode="&#xf4;" horiz-adv-x="1261" 
d="M555 1597h152l233 -311h-139l-170 227l-168 -227h-139zM631 -25q-233 0 -391 161t-158 405t157 402.5t392 158.5t392 -158.5t157 -402.5t-158 -405t-391 -161zM631 119q167 0 281 120.5t114 299.5t-114 299t-281 120t-281 -120t-114 -299t114 -299.5t281 -120.5z" />
    <glyph glyph-name="otilde" unicode="&#xf5;" horiz-adv-x="1261" 
d="M762 1286q-51 0 -96 23t-83.5 46t-72.5 23q-29 0 -52.5 -19.5t-27.5 -62.5h-119q4 89 59.5 143t133.5 54q51 0 96 -23t83.5 -46t72.5 -23q29 0 52.5 20.5t27.5 63.5h116q-4 -95 -59 -147t-131 -52zM631 -25q-233 0 -391 161t-158 405t157 402.5t392 158.5t392 -158.5
t157 -402.5t-158 -405t-391 -161zM631 119q167 0 281 120.5t114 299.5t-114 299t-281 120t-281 -120t-114 -299t114 -299.5t281 -120.5z" />
    <glyph glyph-name="odieresis" unicode="&#xf6;" horiz-adv-x="1261" 
d="M459 1286q-51 0 -85 34t-34 85q0 50 34 83.5t85 33.5q49 0 82.5 -33.5t33.5 -83.5q0 -51 -33 -85t-83 -34zM805 1286q-51 0 -85 34t-34 85q0 48 34.5 82.5t84.5 34.5q47 0 82 -34t35 -83t-34.5 -84t-82.5 -35zM631 -25q-233 0 -391 161t-158 405t157 402.5t392 158.5
t392 -158.5t157 -402.5t-158 -405t-391 -161zM631 119q167 0 281 120.5t114 299.5t-114 299t-281 120t-281 -120t-114 -299t114 -299.5t281 -120.5z" />
    <glyph glyph-name="divide" unicode="&#xf7;" horiz-adv-x="1351" 
d="M594 1087v226h164v-226h-164zM205 688v154h942v-154h-942zM594 217v225h164v-225h-164z" />
    <glyph glyph-name="oslash" unicode="&#xf8;" horiz-adv-x="1261" 
d="M1268 1090l-199 -199q111 -149 111 -350q0 -244 -158 -405t-391 -161q-205 0 -352 125l-199 -198l-86 86l201 200q-113 148 -113 353q0 244 157 402.5t392 158.5q206 0 354 -123l197 197zM236 539q0 -136 67 -242l574 573q-109 88 -246 88q-167 0 -281 -120t-114 -299z
M1026 539q0 133 -68 241l-573 -573q109 -88 246 -88q167 0 281 120.5t114 299.5z" />
    <glyph glyph-name="ugrave" unicode="&#xf9;" horiz-adv-x="1124" 
d="M631 1286h-129l-187 311h156zM838 1077h143v-1077h-143v121q-50 -68 -133 -107t-181 -39q-112 0 -204.5 56t-144.5 150t-52 204v692h143v-657q0 -138 78 -219.5t209 -81.5q128 0 206.5 82.5t78.5 218.5v657z" />
    <glyph glyph-name="uacute" unicode="&#xfa;" horiz-adv-x="1124" 
d="M817 1597l-186 -311h-129l160 311h155zM838 1077h143v-1077h-143v121q-50 -68 -133 -107t-181 -39q-112 0 -204.5 56t-144.5 150t-52 204v692h143v-657q0 -138 78 -219.5t209 -81.5q128 0 206.5 82.5t78.5 218.5v657z" />
    <glyph glyph-name="ucircumflex" unicode="&#xfb;" horiz-adv-x="1124" 
d="M563 1513l-168 -227h-139l231 311h152l233 -311h-139zM838 1077h143v-1077h-143v121q-50 -68 -133 -107t-181 -39q-112 0 -204.5 56t-144.5 150t-52 204v692h143v-657q0 -138 78 -219.5t209 -81.5q128 0 206.5 82.5t78.5 218.5v657z" />
    <glyph glyph-name="udieresis" unicode="&#xfc;" horiz-adv-x="1124" 
d="M391 1286q-51 0 -85 34t-34 85q0 50 34 83.5t85 33.5q49 0 83 -34t34 -83q0 -51 -33.5 -85t-83.5 -34zM737 1286q-51 0 -85 34t-34 85q0 48 34.5 82.5t84.5 34.5q47 0 82 -34t35 -83t-34.5 -84t-82.5 -35zM838 1077h143v-1077h-143v121q-50 -68 -133 -107t-181 -39
q-112 0 -204.5 56t-144.5 150t-52 204v692h143v-657q0 -138 78 -219.5t209 -81.5q128 0 206.5 82.5t78.5 218.5v657z" />
    <glyph glyph-name="yacute" unicode="&#xfd;" horiz-adv-x="1126" 
d="M817 1599l-186 -311h-129l160 311h155zM913 1079h172l-503 -1216q-15 -38 -26.5 -63t-31 -60t-39 -58.5t-48.5 -49t-61 -40t-76 -24.5t-95 -10q-76 0 -135 20v133q40 -10 106 -10q49 0 88 13t62 28.5t44 45.5t29.5 48t22.5 51l51 125l-432 1067h170l352 -870z" />
    <glyph glyph-name="thorn" unicode="&#xfe;" horiz-adv-x="1312" 
d="M688 1102q112 0 211.5 -41.5t173 -114.5t116 -178.5t42.5 -226.5q0 -162 -73 -292t-198 -202t-276 -72q-125 0 -231 51.5t-166 141.5v-578h-144v1936h144v-627q56 94 163.5 148.5t237.5 54.5zM684 119q170 0 281.5 119t111.5 301q0 181 -112 300t-281 119
q-171 0 -284 -119t-113 -300q0 -182 112.5 -301t284.5 -119z" />
    <glyph glyph-name="ydieresis" unicode="&#xff;" horiz-adv-x="1126" 
d="M391 1288q-51 0 -85 34t-34 85q0 50 34 83.5t85 33.5q49 0 83 -34t34 -83q0 -51 -33.5 -85t-83.5 -34zM737 1288q-51 0 -85 34t-34 85q0 48 34.5 82.5t84.5 34.5q47 0 82 -34t35 -83t-34.5 -84t-82.5 -35zM913 1079h172l-503 -1216q-15 -38 -26.5 -63t-31 -60t-39 -58.5
t-48.5 -49t-61 -40t-76 -24.5t-95 -10q-76 0 -135 20v133q40 -10 106 -10q49 0 88 13t62 28.5t44 45.5t29.5 48t22.5 51l51 125l-432 1067h170l352 -870z" />
    <glyph glyph-name="dotlessi" unicode="&#x131;" horiz-adv-x="471" 
d="M164 0v1077h143v-1077h-143z" />
    <glyph glyph-name="Lslash" unicode="&#x141;" horiz-adv-x="1085" 
d="M164 0v670l-297 -80v143l297 80v713h164v-668l293 80v-143l-293 -80v-572h676v-143h-840z" />
    <glyph glyph-name="lslash" unicode="&#x142;" horiz-adv-x="430" 
d="M143 0v653l-209 -75v143l209 76v729h144v-676l209 76v-144l-209 -75v-707h-144z" />
    <glyph glyph-name="OE" unicode="&#x152;" horiz-adv-x="2592" 
d="M2470 1382h-819v-546h778v-144h-778v-549h819v-143h-983v279q-105 -142 -265.5 -223t-344.5 -81q-157 0 -298 59t-243.5 162t-162.5 251t-60 317t60 316t162.5 249.5t243.5 161.5t298 59q184 0 344.5 -80.5t265.5 -222.5v279h983v-144zM877 129q129 0 241.5 50t191 136
t123 202.5t44.5 246.5q0 129 -44.5 245t-122.5 201.5t-190.5 136t-242.5 50.5q-173 0 -311.5 -86t-214 -230.5t-75.5 -316.5q0 -174 76 -319t214.5 -230.5t310.5 -85.5z" />
    <glyph glyph-name="oe" unicode="&#x153;" horiz-adv-x="2125" 
d="M2064 590q0 -49 -8 -96h-866q3 -170 116.5 -277.5t270.5 -107.5q120 0 205.5 56.5t132.5 151.5l131 -71q-56 -119 -182.5 -195t-286.5 -76q-151 0 -272 71.5t-191 197.5q-73 -126 -198 -197.5t-279 -71.5q-236 0 -395.5 161t-159.5 405q0 120 42.5 225t116.5 178.5
t176.5 115.5t219.5 42q154 0 278.5 -69.5t196.5 -190.5q67 121 186 190.5t267 69.5q113 0 208.5 -42.5t158 -113.5t97.5 -163t35 -193zM1194 627h709q0 141 -103 241.5t-244 100.5q-138 0 -241.5 -98t-120.5 -244zM637 119q168 0 284.5 120.5t116.5 299.5t-116.5 299
t-284.5 120q-169 0 -285 -119.5t-116 -299.5t116 -300t285 -120z" />
    <glyph glyph-name="Scaron" unicode="&#x160;" horiz-adv-x="1290" 
d="M569 1735l-231 311h139l168 -227l170 227h139l-233 -311h-152zM686 -25q-216 0 -377 117t-217 293l148 64q54 -161 169 -245.5t277 -84.5q151 0 244.5 71.5t93.5 186.5q0 104 -59 167.5t-187 100.5l-278 82q-176 51 -269.5 160t-93.5 250q0 181 136.5 297t349.5 116
q201 0 349.5 -103.5t201.5 -260.5l-148 -68q-49 141 -152.5 215t-248.5 74q-146 0 -235 -70.5t-89 -187.5q0 -96 64.5 -168t185.5 -107l264 -77q188 -56 280.5 -155.5t92.5 -250.5q0 -185 -139.5 -300.5t-362.5 -115.5z" />
    <glyph glyph-name="scaron" unicode="&#x161;" horiz-adv-x="946" 
d="M397 1286l-231 311h139l168 -227l170 227h139l-233 -311h-152zM504 -25q-154 0 -272 78t-171 213l129 66q40 -103 124 -158t190 -55q101 0 164 48t63 122q0 58 -43.5 96.5t-132.5 63.5l-172 49q-270 77 -270 297q0 138 98.5 222.5t261.5 84.5q145 0 254.5 -72.5
t155.5 -198.5l-129 -61q-35 91 -109 141t-172 50q-93 0 -150 -43.5t-57 -112.5q0 -114 164 -164l180 -55q134 -41 204.5 -117.5t70.5 -183.5q0 -137 -106 -223.5t-275 -86.5z" />
    <glyph glyph-name="Ydieresis" unicode="&#x178;" horiz-adv-x="1333" 
d="M496 1735q-51 0 -85 33.5t-34 84.5q0 50 34 83.5t85 33.5q49 0 82.5 -33.5t33.5 -83.5q0 -51 -33 -84.5t-83 -33.5zM842 1735q-51 0 -85 33.5t-34 84.5q0 48 34.5 82.5t84.5 34.5q47 0 81.5 -34t34.5 -83t-34 -83.5t-82 -34.5zM1102 1526h180l-532 -817v-709h-164v709
l-535 817h180l437 -666z" />
    <glyph glyph-name="Zcaron" unicode="&#x17d;" horiz-adv-x="1224" 
d="M551 1663l-232 311h140l168 -227l170 227h139l-234 -311h-151zM270 143h893v-143h-1102v100l875 1282h-823v144h1032v-101z" />
    <glyph glyph-name="zcaron" unicode="&#x17e;" horiz-adv-x="858" 
d="M354 1286l-231 311h139l168 -227l170 227h139l-233 -311h-152zM20 0v123l623 811h-590v143h783v-123l-623 -811h625v-143h-818z" />
    <glyph glyph-name="florin" unicode="&#x192;" horiz-adv-x="1306" 
d="M1079 1550q80 0 144 -22l-27 -129q-65 18 -121 18q-86 0 -148.5 -50t-82.5 -144l-121 -572h307v-133h-336l-114 -549q-31 -150 -136 -231.5t-241 -81.5q-80 0 -144 22l27 129q52 -18 127 -18q81 0 143 51t82 144l113 534h-320v133h349l122 586q31 150 136 231.5t241 81.5
z" />
    <glyph glyph-name="circumflex" unicode="&#x2c6;" horiz-adv-x="698" 
d="M272 1622h152l233 -311h-139l-170 227l-168 -227h-139z" />
    <glyph glyph-name="caron" unicode="&#x2c7;" horiz-adv-x="698" 
d="M272 1311l-231 311h139l168 -227l170 227h139l-233 -311h-152z" />
    <glyph glyph-name="breve" unicode="&#x2d8;" horiz-adv-x="645" 
d="M322 1311q-117 0 -199 82t-82 196h113q0 -69 49.5 -120.5t118.5 -51.5t120.5 51.5t51.5 120.5h110q0 -115 -82.5 -196.5t-199.5 -81.5z" />
    <glyph glyph-name="dotaccent" unicode="&#x2d9;" horiz-adv-x="317" 
d="M160 1311q-51 0 -85 34t-34 85q0 50 34 83t85 33q50 0 83 -33t33 -83q0 -51 -33 -85t-83 -34z" />
    <glyph glyph-name="ring" unicode="&#x2da;" horiz-adv-x="483" 
d="M242 1311q-84 0 -142.5 56.5t-58.5 139.5q0 82 57.5 138.5t143.5 56.5q85 0 142.5 -56.5t57.5 -138.5t-58 -139t-142 -57zM242 1409q41 0 70.5 28.5t29.5 69.5q0 40 -29.5 68.5t-70.5 28.5q-42 0 -71.5 -28.5t-29.5 -68.5q0 -41 29.5 -69.5t71.5 -28.5z" />
    <glyph glyph-name="ogonek" unicode="&#x2db;" horiz-adv-x="532" 
d="M262 -418q-95 0 -158 50.5t-63 138.5q0 85 66.5 154t191.5 108l68 -23q-103 -42 -156 -100t-53 -115q0 -49 31 -76.5t85 -27.5q47 0 92 18t74 49l52 -86q-96 -90 -230 -90z" />
    <glyph glyph-name="tilde" unicode="&#x2dc;" horiz-adv-x="722" 
d="M492 1311q-51 0 -96 23t-83.5 46t-72.5 23q-29 0 -52.5 -19.5t-27.5 -62.5h-119q4 89 59 143t133 54q40 0 77.5 -14.5t61.5 -32t54.5 -32t58.5 -14.5q29 0 52.5 20.5t27.5 63.5h117q-4 -95 -59 -146.5t-131 -51.5z" />
    <glyph glyph-name="hungarumlaut" unicode="&#x2dd;" horiz-adv-x="694" 
d="M41 1311l160 313h155l-186 -313h-129zM336 1311l162 313h155l-188 -313h-129z" />
    <glyph glyph-name="gravecomb" unicode="&#x300;" 
d="M-41 1311h-129l-186 311h155z" />
    <glyph glyph-name="acutecomb" unicode="&#x301;" 
d="M-356 1311l159 311h156l-186 -311h-129z" />
    <glyph glyph-name="uni0302" unicode="&#x302;" 
d="M-426 1622h152l233 -311h-139l-170 227l-168 -227h-139z" />
    <glyph glyph-name="tildecomb" unicode="&#x303;" 
d="M-231 1311q-51 0 -96 23t-83.5 46t-72.5 23q-29 0 -52.5 -19.5t-27.5 -62.5h-119q4 89 59.5 143t133.5 54q40 0 77.5 -14.5t61.5 -32t54 -32t58 -14.5q29 0 52.5 20.5t27.5 63.5h117q-4 -95 -59 -146.5t-131 -51.5z" />
    <glyph glyph-name="uni0304" unicode="&#x304;" 
d="M-485 1311v121h444v-121h-444z" />
    <glyph glyph-name="uni0306" unicode="&#x306;" 
d="M-324 1311q-116 0 -198 81.5t-82 196.5h112q0 -69 49.5 -120.5t118.5 -51.5t120.5 51.5t51.5 120.5h111q0 -115 -83 -196.5t-200 -81.5z" />
    <glyph glyph-name="uni0307" unicode="&#x307;" 
d="M-158 1311q-51 0 -84.5 34t-33.5 85q0 50 33.5 83t84.5 33q50 0 83.5 -33.5t33.5 -82.5q0 -51 -33.5 -85t-83.5 -34z" />
    <glyph glyph-name="uni0308" unicode="&#x308;" 
d="M-504 1311q-51 0 -85 34t-34 85q0 50 34 83t85 33q50 0 83.5 -33.5t33.5 -82.5q0 -51 -33.5 -85t-83.5 -34zM-158 1311q-51 0 -84.5 34t-33.5 85q0 48 34 82t84 34q47 0 82 -33.5t35 -82.5t-34.5 -84t-82.5 -35z" />
    <glyph glyph-name="uni030A" unicode="&#x30a;" 
d="M-242 1311q-84 0 -142 56.5t-58 139.5q0 82 57 138.5t143 56.5q85 0 143 -56.5t58 -138.5t-58 -139t-143 -57zM-242 1409q42 0 71.5 28.5t29.5 69.5q0 40 -30 68.5t-71 28.5q-42 0 -71 -28.5t-29 -68.5q0 -41 29.5 -69.5t70.5 -28.5z" />
    <glyph glyph-name="uni030B" unicode="&#x30b;" 
d="M-653 1311l159 313h156l-186 -313h-129zM-358 1311l161 313h156l-188 -313h-129z" />
    <glyph glyph-name="uni030C" unicode="&#x30c;" 
d="M-426 1311l-231 311h139l168 -227l170 227h139l-233 -311h-152z" />
    <glyph glyph-name="uni0326" unicode="&#x326;" 
d="M-358 -492l129 390h188l-211 -390h-106z" />
    <glyph glyph-name="uni0327" unicode="&#x327;" 
d="M-262 -422q-135 0 -230 92l52 84q28 -30 73 -48.5t93 -18.5q54 0 85 28t31 76q0 60 -53.5 116.5t-155.5 98.5l78 25q118 -40 183 -109t65 -155q0 -87 -64 -138t-157 -51z" />
    <glyph glyph-name="uni0328" unicode="&#x328;" 
d="M-270 -418q-95 0 -158.5 50.5t-63.5 138.5q0 85 67 154t192 108l67 -23q-103 -42 -156 -100t-53 -115q0 -49 31.5 -76.5t85.5 -27.5q47 0 92 18t74 49l51 -86q-96 -90 -229 -90z" />
    <glyph glyph-name="uni0335" unicode="&#x335;" 
d="M-854 598v143h813v-143h-813z" />
    <glyph glyph-name="uni0336" unicode="&#x336;" 
d="M-1397 602v133h1356v-133h-1356z" />
    <glyph glyph-name="uni0394" unicode="&#x394;" horiz-adv-x="1292" 
d="M51 0v133l531 1393h129l530 -1393v-133h-1190zM229 154h834l-418 1126z" />
    <glyph glyph-name="uni03A9" unicode="&#x3a9;" horiz-adv-x="1888" 
d="M113 0v174h319q-138 103 -211.5 256t-73.5 338q0 153 58.5 294.5t160.5 249.5t253 173t325 65t325 -65t253 -173t160.5 -249.5t58.5 -294.5q0 -185 -73.5 -338t-211.5 -256h320v-174h-656v174q204 46 330.5 210.5t126.5 383.5q0 118 -46.5 231t-127.5 201.5t-201 142.5
t-258 54t-258 -54t-201 -142.5t-127.5 -201.5t-46.5 -231q0 -218 125.5 -382.5t331.5 -211.5v-174h-655z" />
    <glyph glyph-name="pi" unicode="&#x3c0;" horiz-adv-x="1294" 
d="M315 0v956h-274v144h1212v-144h-274v-956h-143v956h-377v-956h-144z" />
    <glyph glyph-name="endash" unicode="&#x2013;" horiz-adv-x="1249" 
d="M195 479v144h860v-144h-860z" />
    <glyph glyph-name="emdash" unicode="&#x2014;" horiz-adv-x="1740" 
d="M195 479v144h1351v-144h-1351z" />
    <glyph glyph-name="quoteleft" unicode="&#x2018;" horiz-adv-x="663" 
d="M195 983l141 543h113l-80 -543h-174z" />
    <glyph glyph-name="quoteright" unicode="&#x2019;" horiz-adv-x="663" 
d="M195 983l79 543h175l-142 -543h-112z" />
    <glyph glyph-name="quotesinglbase" unicode="&#x201a;" horiz-adv-x="663" 
d="M195 -317l79 542h175l-142 -542h-112z" />
    <glyph glyph-name="quotedblleft" unicode="&#x201c;" horiz-adv-x="1021" 
d="M195 983l141 543h113l-80 -543h-174zM553 983l141 543h113l-80 -543h-174z" />
    <glyph glyph-name="quotedblright" unicode="&#x201d;" horiz-adv-x="1021" 
d="M195 983l79 543h175l-142 -543h-112zM553 983l80 543h174l-141 -543h-113z" />
    <glyph glyph-name="quotedblbase" unicode="&#x201e;" horiz-adv-x="1021" 
d="M195 -317l79 542h175l-142 -542h-112zM553 -317l80 542h174l-141 -542h-113z" />
    <glyph glyph-name="dagger" unicode="&#x2020;" horiz-adv-x="1515" 
d="M676 -399v1357h-471v144h471v424h164v-424h471v-144h-471v-1357h-164z" />
    <glyph glyph-name="daggerdbl" unicode="&#x2021;" horiz-adv-x="1515" 
d="M676 -399v424h-471v143h471v790h-471v144h471v424h164v-424h471v-144h-471v-790h471v-143h-471v-424h-164z" />
    <glyph glyph-name="bullet" unicode="&#x2022;" horiz-adv-x="847" 
d="M426 555q-89 0 -150 61t-61 152q0 87 61 147t150 60q87 0 146 -60t61 -147q1 -90 -59 -151.5t-148 -61.5z" />
    <glyph glyph-name="ellipsis" unicode="&#x2026;" horiz-adv-x="1822" 
d="M215 0v225h164v-225h-164zM829 0v225h164v-225h-164zM1444 0v225h164v-225h-164z" />
    <glyph glyph-name="perthousand" unicode="&#x2030;" horiz-adv-x="2478" 
d="M567 825q-151 0 -256.5 106t-105.5 257t105.5 256.5t256.5 105.5q149 0 255 -106t106 -256q0 -151 -106 -257t-255 -106zM1911 827q-150 0 -255.5 105.5t-105.5 255.5t106 256t255 106q151 0 256.5 -105.5t105.5 -256.5t-105.5 -256t-256.5 -105zM623 0l692 1526h176
l-692 -1526h-176zM567 971q88 0 152.5 64.5t64.5 152.5t-64.5 152.5t-152.5 64.5q-89 0 -153 -64.5t-64 -152.5t64 -152.5t153 -64.5zM1911 971q89 0 153 64.5t64 152.5t-64 152.5t-153 64.5q-88 0 -152.5 -64.5t-64.5 -152.5t64.5 -152.5t152.5 -64.5zM1550 -25
q-150 0 -255 105.5t-105 255.5q0 151 105.5 256.5t254.5 105.5q151 0 257 -105.5t106 -256.5t-106 -256t-257 -105zM1550 119q89 0 153 64.5t64 152.5t-64 152.5t-153 64.5q-88 0 -152.5 -64.5t-64.5 -152.5t64.5 -152.5t152.5 -64.5z" />
    <glyph glyph-name="guilsinglleft" unicode="&#x2039;" horiz-adv-x="802" 
d="M444 162l-311 389l311 389h185l-312 -389l312 -389h-185z" />
    <glyph glyph-name="guilsinglright" unicode="&#x203a;" horiz-adv-x="802" 
d="M358 162h-184l311 389l-311 389h184l312 -389z" />
    <glyph glyph-name="fraction" unicode="&#x2044;" horiz-adv-x="438" 
d="M-205 0l692 1526h156l-692 -1526h-156z" />
    <glyph glyph-name="uni2070" unicode="&#x2070;" horiz-adv-x="1017" 
d="M510 596q-164 0 -265.5 130.5t-101.5 342.5t101 341.5t264 129.5q164 0 265 -129.5t101 -341.5q0 -213 -100 -343t-264 -130zM510 725q102 0 162.5 93.5t60.5 250.5q0 156 -60.5 249t-164.5 93q-101 0 -162 -93t-61 -249q0 -157 61 -250.5t164 -93.5z" />
    <glyph glyph-name="uni2074" unicode="&#x2074;" horiz-adv-x="903" 
d="M801 936v-119h-133v-207h-138v207h-448v119l442 590h144v-590h133zM225 936h305v412z" />
    <glyph glyph-name="uni2075" unicode="&#x2075;" horiz-adv-x="862" 
d="M436 1200q132 0 217.5 -82t85.5 -211q0 -135 -91 -223t-230 -88q-109 0 -195.5 54.5t-120.5 146.5l111 61q25 -61 80 -98t125 -37q79 0 129.5 49.5t50.5 128.5q0 78 -50.5 127t-131.5 49q-51 0 -91.5 -21t-60.5 -59l-102 25l65 504h484v-121h-385l-31 -242q55 37 141 37z
" />
    <glyph glyph-name="uni2076" unicode="&#x2076;" horiz-adv-x="825" 
d="M430 1186q122 0 207.5 -86.5t85.5 -206.5q0 -128 -88 -212.5t-223 -84.5q-134 0 -222 85.5t-88 217.5q0 121 99 256l270 371h162l-254 -346q24 6 51 6zM412 723q71 0 119.5 49t48.5 123q0 75 -48 122.5t-120 47.5q-71 0 -118.5 -48t-47.5 -122t48 -123t118 -49z" />
    <glyph glyph-name="uni2077" unicode="&#x2077;" horiz-adv-x="733" 
d="M135 608l393 795h-446v123h590v-123l-387 -795h-150z" />
    <glyph glyph-name="uni2078" unicode="&#x2078;" horiz-adv-x="897" 
d="M629 1104q69 -35 107 -93.5t38 -131.5q0 -123 -92.5 -203t-232.5 -80t-233 80t-93 203q0 74 38.5 132.5t108.5 92.5q-51 30 -78.5 81t-27.5 111q0 104 81 174t204 70t203.5 -69t80.5 -175q0 -60 -27.5 -110.5t-76.5 -81.5zM449 1419q-62 0 -102 -37t-40 -94t40 -93
t102 -36q60 0 99.5 36t39.5 93q0 58 -39.5 94.5t-99.5 36.5zM449 717q79 0 131.5 45.5t52.5 114.5q0 70 -52 115.5t-132 45.5t-131.5 -45.5t-51.5 -115.5q0 -69 52 -114.5t131 -45.5z" />
    <glyph glyph-name="uni2079" unicode="&#x2079;" horiz-adv-x="825" 
d="M412 1540q135 0 223 -85.5t88 -217.5q0 -121 -98 -256l-273 -371h-159l253 346q-24 -6 -51 -6q-122 0 -207.5 86.5t-85.5 206.5q0 128 88.5 212.5t221.5 84.5zM412 1071q72 0 120 47.5t48 122.5q0 74 -48.5 123t-119.5 49q-70 0 -118 -49t-48 -123t47.5 -122t118.5 -48z
" />
    <glyph glyph-name="uni2080" unicode="&#x2080;" horiz-adv-x="1017" 
d="M510 -14q-164 0 -265.5 130.5t-101.5 342.5t101 341.5t264 129.5q164 0 265 -129.5t101 -341.5q0 -213 -100 -343t-264 -130zM510 115q102 0 162.5 93.5t60.5 250.5q0 156 -60.5 249t-164.5 93q-101 0 -162 -93t-61 -249q0 -157 61 -250.5t164 -93.5z" />
    <glyph glyph-name="uni2081" unicode="&#x2081;" horiz-adv-x="684" 
d="M233 0v793h-172v122h316v-915h-144z" />
    <glyph glyph-name="uni2082" unicode="&#x2082;" horiz-adv-x="837" 
d="M106 0v102l250 263q119 126 158 182.5t39 114.5q0 66 -39 103.5t-108 37.5t-118.5 -35t-72.5 -100l-113 61q32 93 115 147t195 54q125 0 204.5 -71t79.5 -185q0 -76 -44.5 -150.5t-137.5 -171.5l-223 -231h424v-121h-609z" />
    <glyph glyph-name="uni2083" unicode="&#x2083;" horiz-adv-x="854" 
d="M500 565q103 -15 167 -92t64 -184q0 -131 -90.5 -217t-228.5 -86q-111 0 -193.5 54t-116.5 146l113 62q24 -62 75 -98.5t122 -36.5q78 0 128 48t50 124t-50 123t-130 47q-47 0 -84 -13l-25 72l236 279l-392 2v120h551v-114z" />
    <glyph glyph-name="uni2084" unicode="&#x2084;" horiz-adv-x="903" 
d="M801 326v-119h-133v-207h-138v207h-448v119l442 589h144v-589h133zM225 326h305v411z" />
    <glyph glyph-name="uni2085" unicode="&#x2085;" horiz-adv-x="862" 
d="M436 590q132 0 217.5 -82t85.5 -211q0 -135 -91 -223t-230 -88q-110 0 -196 54t-120 146l111 62q25 -61 80 -98t125 -37q79 0 129.5 49.5t50.5 128.5q0 78 -50.5 127t-131.5 49q-51 0 -91.5 -21t-60.5 -59l-102 25l65 503h484v-120h-385l-31 -242q55 37 141 37z" />
    <glyph glyph-name="uni2086" unicode="&#x2086;" horiz-adv-x="825" 
d="M430 575q122 0 207.5 -86.5t85.5 -205.5q0 -128 -88 -212.5t-223 -84.5q-134 0 -222 85.5t-88 217.5q0 121 99 256l270 370h162l-254 -346q24 6 51 6zM412 113q71 0 119.5 49t48.5 123q0 75 -48 122.5t-120 47.5q-71 0 -118.5 -48t-47.5 -122t48 -123t118 -49z" />
    <glyph glyph-name="uni2087" unicode="&#x2087;" horiz-adv-x="733" 
d="M135 0l393 795h-446v123h590v-123l-387 -795h-150z" />
    <glyph glyph-name="uni2088" unicode="&#x2088;" horiz-adv-x="897" 
d="M629 494q69 -35 107 -94t38 -132q0 -123 -92.5 -202.5t-232.5 -79.5t-233 80t-93 202q0 74 38.5 133t108.5 93q-51 30 -78.5 81t-27.5 111q0 104 81 174t204 70t203.5 -69t80.5 -175q0 -60 -27.5 -110.5t-76.5 -81.5zM449 809q-62 0 -102 -37t-40 -94t40 -93t102 -36
q60 0 99.5 36t39.5 93q0 58 -39.5 94.5t-99.5 36.5zM449 106q79 0 131.5 45.5t52.5 114.5q0 70 -52 116t-132 46t-131.5 -46t-51.5 -116q0 -69 52 -114.5t131 -45.5z" />
    <glyph glyph-name="uni2089" unicode="&#x2089;" horiz-adv-x="825" 
d="M412 930q135 0 223 -85.5t88 -217.5q0 -121 -98 -256l-273 -371h-159l253 346q-24 -6 -51 -6q-122 0 -207.5 86.5t-85.5 206.5q0 128 88.5 212.5t221.5 84.5zM412 461q72 0 120 47.5t48 122.5q0 74 -48.5 123t-119.5 49q-70 0 -118 -49t-48 -123t47.5 -122t118.5 -48z
" />
    <glyph glyph-name="lira" unicode="&#x20a4;" horiz-adv-x="1638" 
d="M688 520v-377h694v-143h-1103v143h245v377h-299l41 144h258v163h-237l41 144h196v135q0 198 129.5 321t339.5 123q173 0 302.5 -90t181.5 -248l-131 -61q-41 123 -132.5 189.5t-220.5 66.5q-143 0 -224 -80t-81 -221v-135h619l-41 -144h-578v-163h557l-41 -144h-516z" />
    <glyph glyph-name="Euro" unicode="&#x20ac;" horiz-adv-x="1712" 
d="M1055 119q141 0 249 80.5t160 226.5l146 -72q-64 -177 -212.5 -278t-342.5 -101q-236 0 -409.5 148.5t-233.5 396.5h-330l41 144h264q-4 66 -4 98q0 42 2 65h-242l41 144h219q53 264 228 421.5t424 157.5q195 0 343 -101.5t212 -279.5l-146 -71q-51 146 -159.5 227.5
t-249.5 81.5q-173 0 -304.5 -119.5t-181.5 -316.5h594l-41 -144h-575q-2 -20 -2 -65q0 -32 4 -98h553l-41 -144h-483q51 -186 178 -293.5t299 -107.5z" />
    <glyph glyph-name="uni2113" unicode="&#x2113;" horiz-adv-x="1052" 
d="M610 0q-102 0 -182.5 68t-130.5 192q-144 -70 -256 -102l-21 80q102 25 252 98q-41 140 -41 321q0 226 63 415.5t170 298t232 108.5q131 0 213 -117.5t82 -284.5q0 -108 -38.5 -210.5t-98.5 -183.5t-144.5 -156.5t-166 -129.5t-172.5 -102q40 -103 101.5 -159t137.5 -56
q102 0 181 86t94 217l80 -10q-20 -162 -122 -267.5t-233 -105.5zM346 373q85 45 159.5 94t150.5 117.5t130.5 141t88.5 165t34 188.5q0 137 -61 228.5t-156 91.5q-99 0 -187 -100t-141 -272t-53 -370q0 -141 35 -284z" />
    <glyph glyph-name="trademark" unicode="&#x2122;" horiz-adv-x="2205" 
d="M195 1407v119h714v-119h-288v-950h-136v950h-290zM1888 1526h123v-1069h-135v815l-350 -496h-10l-349 500v-819h-135v1069h123l367 -525z" />
    <glyph glyph-name="estimated" unicode="&#x212e;" horiz-adv-x="1699" 
d="M866 -20q-171 0 -318.5 58t-249 157t-159 234t-57.5 286q0 152 58.5 288t160 235.5t247 157.5t312.5 58q166 0 312 -58t247.5 -157t160 -235t58.5 -287v-19h-1247q-10 0 -10 -12v-399q0 -10 1 -15t5 -11.5t14 -18.5q89 -103 198.5 -160t266.5 -57t267.5 59t216.5 180h118
q-57 -68 -114 -117t-129 -88.5t-161.5 -59t-197.5 -19.5zM391 737h938q8 0 8 13v401q0 29 -20 49q-69 73 -125.5 114.5t-140 68t-191.5 26.5q-154 0 -262.5 -57.5t-194.5 -157.5q-16 -19 -19 -26t-3 -23v-395q0 -13 10 -13z" />
    <glyph glyph-name="oneeighth" unicode="&#x215b;" horiz-adv-x="2019" 
d="M61 1403v123h316v-916h-144v793h-172zM1171 1526h156l-692 -1526h-156zM1751 494q69 -35 107 -94t38 -132q0 -123 -92.5 -202.5t-232.5 -79.5t-233 80t-93 202q0 74 39 133t109 93q-52 30 -79.5 81t-27.5 111q0 104 81 174t204 70t203.5 -69t80.5 -175
q0 -60 -27.5 -110.5t-76.5 -81.5zM1571 809q-61 0 -101 -37t-40 -94t39.5 -93t101.5 -36q60 0 99.5 36t39.5 93q0 58 -39.5 94.5t-99.5 36.5zM1571 106q79 0 131.5 45.5t52.5 114.5q0 70 -52 116t-132 46q-79 0 -130.5 -45.5t-51.5 -116.5q0 -69 51.5 -114.5t130.5 -45.5z
" />
    <glyph glyph-name="threeeighths" unicode="&#x215c;" horiz-adv-x="2189" 
d="M500 1176q103 -15 167 -92.5t64 -184.5q0 -131 -90.5 -217t-228.5 -86q-111 0 -193.5 54.5t-116.5 146.5l113 61q24 -62 75 -98.5t122 -36.5q78 0 128 48t50 124t-50 123t-130 47q-50 0 -84 -12l-25 71l236 279l-392 2v121h551v-115zM1341 1526h156l-692 -1526h-156z
M1921 494q69 -35 107 -94t38 -132q0 -123 -92.5 -202.5t-232.5 -79.5t-233 80t-93 202q0 74 39 133t109 93q-52 30 -79.5 81t-27.5 111q0 104 81 174t204 70t203.5 -69t80.5 -175q0 -60 -27.5 -110.5t-76.5 -81.5zM1741 809q-62 0 -102 -37t-40 -94t40 -93t102 -36
q60 0 99.5 36t39.5 93q0 58 -39.5 94.5t-99.5 36.5zM1741 106q79 0 131.5 45.5t52.5 114.5q0 70 -52 116t-132 46q-79 0 -130.5 -45.5t-51.5 -116.5q0 -69 51.5 -114.5t130.5 -45.5z" />
    <glyph glyph-name="fiveeighths" unicode="&#x215d;" horiz-adv-x="2197" 
d="M436 1200q132 0 217.5 -82t85.5 -211q0 -135 -91 -223t-230 -88q-109 0 -195.5 54.5t-120.5 146.5l111 61q25 -61 80 -98t125 -37q79 0 129.5 49.5t50.5 128.5q0 78 -50.5 127t-131.5 49q-51 0 -91.5 -21t-60.5 -59l-102 25l65 504h484v-121h-385l-31 -242q55 37 141 37z
M1350 1526h155l-692 -1526h-156zM1929 494q69 -35 107.5 -94t38.5 -132q0 -122 -93 -202t-233 -80t-233 80t-93 202q0 74 39 133t109 93q-52 30 -79.5 81t-27.5 111q0 104 81 174t204 70t204 -69t81 -175q0 -60 -27.5 -110.5t-77.5 -81.5zM1749 809q-61 0 -101 -37t-40 -94
t39.5 -93t101.5 -36q60 0 99.5 36t39.5 93q0 58 -39.5 94.5t-99.5 36.5zM1749 106q79 0 131.5 45.5t52.5 114.5q0 70 -52 116t-132 46q-79 0 -130.5 -45.5t-51.5 -116.5q0 -69 51.5 -114.5t130.5 -45.5z" />
    <glyph glyph-name="seveneighths" unicode="&#x215e;" horiz-adv-x="2068" 
d="M672 1526v-123l-387 -795h-150l393 795h-446v123h590zM1221 1526h155l-692 -1526h-156zM1800 494q69 -35 107.5 -94t38.5 -132q0 -122 -93 -202t-233 -80t-233 80t-93 202q0 74 39 133t109 93q-52 30 -79.5 81t-27.5 111q0 104 81 174t204 70t204 -69t81 -175
q0 -60 -27.5 -110.5t-77.5 -81.5zM1620 809q-61 0 -101 -37t-40 -94t39.5 -93t101.5 -36q60 0 99.5 36t39.5 93q0 58 -39.5 94.5t-99.5 36.5zM1620 106q79 0 131.5 45.5t52.5 114.5q0 70 -52 116t-132 46q-79 0 -130.5 -45.5t-51.5 -116.5q0 -69 51.5 -114.5t130.5 -45.5z
" />
    <glyph glyph-name="partialdiff" unicode="&#x2202;" horiz-adv-x="1273" 
d="M416 1679q209 0 389.5 -139t286.5 -375t106 -510q0 -315 -150.5 -497.5t-410.5 -182.5q-246 0 -403.5 162.5t-157.5 415.5q0 252 163 412.5t418 160.5q162 0 310 -53q-77 219 -222 341t-331 122q-97 0 -213 -45l-27 137q131 51 242 51zM637 119q186 0 298 146.5
t109 387.5q0 89 -28 242q-187 88 -359 88q-192 0 -310 -119t-118 -313q0 -184 117.5 -308t290.5 -124z" />
    <glyph glyph-name="product" unicode="&#x220f;" horiz-adv-x="1673" 
d="M463 0v1382h-299v144h1345v-144h-297v-1382h-163v1382h-422v-1382h-164z" />
    <glyph glyph-name="summation" unicode="&#x2211;" horiz-adv-x="1196" 
d="M154 0v121l401 643l-401 641v121h909v-144h-741l385 -618l-385 -621h741v-143h-909z" />
    <glyph glyph-name="minus" unicode="&#x2212;" horiz-adv-x="1351" 
d="M246 688v154h860v-154h-860z" />
    <glyph glyph-name="uni2215" unicode="&#x2215;" horiz-adv-x="905" 
d="M41 0l692 1526h176l-692 -1526h-176z" />
    <glyph glyph-name="uni2219" unicode="&#x2219;" horiz-adv-x="987" 
d="M496 483q-119 0 -200 81.5t-81 201.5q0 116 81.5 196t199.5 80q116 0 195 -80t81 -196q1 -120 -79 -201.5t-197 -81.5z" />
    <glyph glyph-name="radical" unicode="&#x221a;" horiz-adv-x="1656" 
d="M506 0l-322 764h146l250 -608l563 1370h330v-144h-232l-588 -1382h-147z" />
    <glyph glyph-name="infinity" unicode="&#x221e;" horiz-adv-x="1751" 
d="M584 397q-149 0 -254 105t-105 254q0 148 105 252t254 104q89 0 167 -40.5t126 -110.5q49 72 126.5 111.5t165.5 39.5q149 0 253 -104.5t104 -251.5q0 -149 -104.5 -254t-252.5 -105q-88 0 -165.5 40.5t-126.5 113.5q-48 -71 -126 -112.5t-167 -41.5zM584 528
q92 0 159.5 68t67.5 160q0 91 -67.5 159t-159.5 68t-160 -68t-68 -159q0 -92 68 -160t160 -68zM1169 528q92 0 160 68t68 160q0 91 -69 159t-159 68q-92 0 -159.5 -67.5t-67.5 -159.5t67.5 -160t159.5 -68z" />
    <glyph glyph-name="integral" unicode="&#x222b;" horiz-adv-x="913" 
d="M160 -410q-52 0 -101 11v129q41 -6 101 -6q93 0 153 57t60 160v1259q0 165 102 257.5t254 92.5q55 0 100 -10v-129q-41 6 -100 6q-93 0 -153 -57t-60 -160v-1259q0 -165 -102 -258t-254 -93z" />
    <glyph glyph-name="approxequal" unicode="&#x2248;" horiz-adv-x="1511" 
d="M246 846v141q114 123 299 123q54 0 102 -12.5t84 -30t71 -34.5t79 -29.5t92 -12.5q82 0 159 32t134 89v-141q-114 -123 -295 -123q-67 0 -126.5 18.5t-97.5 41t-93.5 41t-114.5 18.5q-80 0 -158 -32t-135 -89zM246 416v141q117 123 299 123q54 0 102 -12.5t84 -30
t71 -34.5t79 -29.5t92 -12.5q82 0 159 32t134 89v-141q-114 -123 -295 -123q-67 0 -126.5 18.5t-97.5 41t-93.5 41t-114.5 18.5q-80 0 -158 -32t-135 -89z" />
    <glyph glyph-name="notequal" unicode="&#x2260;" horiz-adv-x="1351" 
d="M1106 934h-291l-94 -338h385v-154h-426l-57 -204h-154l57 204h-280v154h321l95 338h-416v153h456l58 205h153l-57 -205h250v-153z" />
    <glyph glyph-name="lessequal" unicode="&#x2264;" horiz-adv-x="1286" 
d="M1063 348l-842 481v140l842 481v-166l-664 -385l664 -385v-166zM172 0v143h942v-143h-942z" />
    <glyph glyph-name="greaterequal" unicode="&#x2265;" horiz-adv-x="1245" 
d="M223 348v166l664 385l-664 385v166l842 -481v-140zM172 0v143h942v-143h-942z" />
    <glyph glyph-name="lozenge" unicode="&#x25ca;" horiz-adv-x="1425" 
d="M1262 764l-496 -764h-107l-495 764l495 762h107zM713 156l389 608l-389 606l-389 -606z" />
    <glyph glyph-name="uniF8FF" unicode="&#xf8ff;" horiz-adv-x="1228" 
d="M102 819v205h205v-4l-201 -201h-4zM512 819v205h205v-205h-205zM102 410v204h205v-204h-205zM512 410v204h205v-204h-205zM922 410v204h204v-204h-204zM512 0v205h205v-205h-205z" />
    <glyph glyph-name="A.ss02" horiz-adv-x="1398" 
d="M786 1526l562 -1526h-172l-134 377h-686l-133 -377h-172l508 1382h-274v144h501zM408 520h583l-291 823z" />
    <glyph glyph-name="E.ss02" horiz-adv-x="1402" 
d="M379 0v1382h-215v144h1116v-144h-737v-546h696v-144h-696v-549h737v-143h-901z" />
    <glyph glyph-name="F.ss02" horiz-adv-x="1361" 
d="M379 0v1382h-215v144h1116v-144h-737v-546h696v-144h-696v-692h-164z" />
    <glyph glyph-name="G.ss02" horiz-adv-x="1630" 
d="M856 788h672v-788h-144v258q-86 -142 -223.5 -212.5t-298.5 -70.5q-159 0 -298 59t-238 162.5t-156 250t-57 315.5q0 225 95.5 405.5t265.5 281.5t382 101q112 0 214.5 -32.5t179.5 -87t133 -121.5t85 -140l-147 -71q-58 143 -179.5 226t-285.5 83q-167 0 -299.5 -81.5
t-206.5 -229t-74 -334.5q0 -140 44.5 -260t121.5 -204t186 -131.5t234 -47.5q78 0 150 17.5t138.5 57.5t116 100t81 150t34.5 201h-526v143z" />
    <glyph glyph-name="G.ss03" horiz-adv-x="1650" 
d="M1548 723q2 -154 -35.5 -280.5t-102.5 -212t-155 -144t-189.5 -85t-209.5 -26.5q-212 0 -382 101t-265.5 281t-95.5 405t95.5 405t265.5 280.5t382 100.5q112 0 214.5 -32t179.5 -86.5t133 -121t85 -139.5l-147 -71q-58 142 -179.5 224.5t-285.5 82.5q-254 0 -417 -180
t-163 -463t163 -463t417 -180q78 0 150 17.5t138.5 57.5t116 100t81 150t34.5 201h-626v141h798v-63z" />
    <glyph glyph-name="I.ss02" horiz-adv-x="745" 
d="M76 0v143h215v1239h-215v144h594v-144h-215v-1239h215v-143h-594z" />
    <glyph glyph-name="J.ss03" horiz-adv-x="1142" 
d="M530 -25q-199 0 -315 115t-149 305l151 45q33 -155 107.5 -238t205.5 -83q128 0 206.5 83t78.5 218v1106h164v-1106q0 -199 -124 -322t-325 -123z" />
    <glyph glyph-name="K.ss03" horiz-adv-x="1421" 
d="M1339 131h41v-143h-41q-77 0 -131.5 14t-103.5 53t-90.5 93.5t-98.5 148.5l-327 534l-260 -290v-541h-164v1526h164v-760l686 760h196l-510 -570l406 -655q64 -104 106 -137t127 -33z" />
    <glyph glyph-name="Q.ss03" horiz-adv-x="1732" 
d="M924 -23q20 -117 116.5 -185t243.5 -68h211v-144h-211q-212 0 -349.5 110t-156.5 292q-140 17 -262.5 82t-211.5 166t-140 239.5t-51 294.5q0 169 60 316t162.5 249.5t243.5 161.5t298 59t297.5 -59t243 -162t162.5 -250t60 -315q0 -163 -55.5 -306t-151.5 -245
t-228 -164.5t-281 -71.5zM276 764q0 -174 76 -319t214.5 -230.5t310.5 -85.5q129 0 241.5 50t191 136t123 202.5t44.5 246.5q0 129 -44.5 245t-122.5 201.5t-190.5 136t-242.5 50.5q-173 0 -311.5 -86t-214 -230.5t-75.5 -316.5z" />
    <glyph glyph-name="R.ss03" horiz-adv-x="1382" 
d="M981 686q115 -23 161 -81.5t46 -182.5v-422h-164v401q0 102 -41 147.5t-133 45.5h-522v-594h-164v1526h524q230 0 375 -130t145 -337q0 -130 -54 -218.5t-173 -154.5zM688 737q157 0 252.5 89t95.5 235q0 145 -95.5 233t-252.5 88h-360v-645h360z" />
    <glyph glyph-name="U.ss01" horiz-adv-x="1351" 
d="M164 0v1526h164v-1383h696v1383h164v-1526h-1024z" />
    <glyph glyph-name="a.ss01" horiz-adv-x="1097" 
d="M182 1077h772v-1077h-143v166q-51 -85 -147 -138t-201 -53q-170 0 -275.5 90.5t-105.5 235.5q0 117 90.5 198.5t255.5 118.5l383 89v227h-629v143zM463 117q152 0 250 102t98 258v105l-346 -80q-104 -24 -166.5 -78t-62.5 -125q0 -83 61.5 -132.5t165.5 -49.5z" />
    <glyph glyph-name="a.ss02" horiz-adv-x="1155" 
d="M954 141h140v-141h-283v166q-51 -85 -147 -138t-201 -53q-170 0 -275.5 90.5t-105.5 235.5q0 117 90.5 198.5t255.5 118.5l383 89v28q0 100 -73.5 161.5t-190.5 61.5q-100 0 -177 -48t-116 -130l-131 70q47 107 165.5 179.5t258.5 72.5q180 0 293.5 -102.5t113.5 -264.5
v-594zM463 117q152 0 250 102t98 258v105l-346 -80q-104 -24 -166.5 -78t-62.5 -125q0 -83 61.5 -132.5t165.5 -49.5z" />
    <glyph glyph-name="f.ss01" horiz-adv-x="718" 
d="M256 0v936h-215v141h215v449h422v-133h-279v-316h279v-141h-279v-936h-143z" />
    <glyph glyph-name="g.ss03" horiz-adv-x="1269" 
d="M983 1077h143v-1085q0 -200 -138 -321.5t-357 -121.5h-346v144h346q158 0 256 83t98 218l-2 233q-60 -82 -158.5 -127t-216.5 -45q-144 0 -265 69.5t-191 190.5t-70 265q0 145 68.5 264.5t189.5 188.5t268 69q122 0 220.5 -48.5t154.5 -133.5v157zM608 199
q167 0 271 107.5t104 273.5q0 163 -106.5 270.5t-270.5 107.5q-160 0 -265 -105t-105 -273q0 -170 103 -275.5t269 -105.5z" />
    <glyph glyph-name="h.ss01" horiz-adv-x="1089" 
d="M143 0v1526h144v-449h680v-1077h-144v946h-536v-946h-144z" />
    <glyph glyph-name="i.ss02" horiz-adv-x="450" 
d="M184 1300v226h144v-226h-144zM184 0v934h-143v143h287v-1077h-144z" />
    <glyph glyph-name="j.ss01" horiz-adv-x="344" 
d="M98 1303v223h144v-223h-144zM-170 -451v132h268v1396h144v-1528h-412z" />
    <glyph glyph-name="k.ss01" horiz-adv-x="1005" 
d="M143 0v1526h144v-811h178l346 362h174l-399 -430l399 -647h-170l-354 582h-174v-582h-144z" />
    <glyph glyph-name="l.ss01" horiz-adv-x="491" 
d="M143 0v1526h144v-1383h143v-143h-287z" />
    <glyph glyph-name="m.ss02" horiz-adv-x="1794" 
d="M143 0v1077h1528v-1077h-143v944h-549v-944h-143v944h-549v-944h-144z" />
    <glyph glyph-name="m.ss03" horiz-adv-x="1794" 
d="M143 0v1077h1110q186 0 302 -104t116 -264v-709h-143v655q0 134 -74 211.5t-201 77.5h-274v-944h-143v944h-549v-944h-144z" />
    <glyph glyph-name="n.ss01" horiz-adv-x="1110" 
d="M143 0v1077h824v-1077h-144v944h-536v-944h-144z" />
    <glyph glyph-name="n.ss03" horiz-adv-x="1089" 
d="M143 0v1077h412q184 0 298 -104t114 -264v-709h-144v655q0 136 -72 212.5t-196 76.5h-268v-944h-144z" />
    <glyph glyph-name="p.ss02" horiz-adv-x="1376" 
d="M748 1102q235 0 390.5 -160t155.5 -401q0 -160 -71 -289.5t-196.5 -203t-278.5 -73.5q-127 0 -233.5 51.5t-166.5 139.5v-576h-143v1344h-144v143h287v-178q56 92 164.5 147.5t235.5 55.5zM745 119q170 0 283 119.5t113 300.5t-112.5 300t-283.5 119t-284 -119t-113 -300
q0 -182 112.5 -301t284.5 -119z" />
    <glyph glyph-name="q.ss02" horiz-adv-x="1376" 
d="M1028 1077h287v-143h-144v-1335h-143v567q-60 -88 -166.5 -139.5t-232.5 -51.5q-153 0 -278.5 73.5t-197 203t-71.5 289.5q0 121 42.5 226.5t116 178.5t173 114.5t211.5 41.5q130 0 238.5 -55t164.5 -148v178zM631 119q172 0 284.5 119t112.5 301q0 181 -113 300
t-284 119q-170 0 -282.5 -119t-112.5 -300t112.5 -300.5t282.5 -119.5z" />
    <glyph glyph-name="r.ss01" horiz-adv-x="716" 
d="M143 0v1077h512v-143h-368v-934h-144z" />
    <glyph glyph-name="r.ss02" horiz-adv-x="780" 
d="M639 1090h80v-144h-109q-120 0 -191 -77t-71 -212v-514h144v-143h-431v143h144v791h-144v143h285v-125q45 69 121.5 103.5t171.5 34.5z" />
    <glyph glyph-name="t.ss01" horiz-adv-x="798" 
d="M307 0v934h-266v143h266v357h144v-357h266v-143h-266v-791h266v-143h-410z" />
    <glyph glyph-name="u.ss01" horiz-adv-x="1089" 
d="M123 0v1077h143v-934h537v934h143v-1077h-823z" />
    <glyph glyph-name="u.ss03" horiz-adv-x="1089" 
d="M535 -25q-184 0 -298 111t-114 281v710h143v-657q0 -138 73 -219.5t196 -81.5t195.5 81.5t72.5 219.5v657h143v-710q0 -170 -113.5 -281t-297.5 -111z" />
    <glyph glyph-name="y.ss01" horiz-adv-x="1038" 
d="M872 1077h170l-628 -1528h-398v144h293l125 317l-434 1067h170l352 -868z" />
    <glyph glyph-name="y.ss02" horiz-adv-x="1124" 
d="M913 1077h170l-628 -1528h-162l182 461l-434 1067h170l352 -868z" />
    <glyph glyph-name="zero.tf" horiz-adv-x="1228" 
d="M616 -25q-170 0 -301.5 98.5t-203.5 278t-72 412.5t71.5 412t202.5 277.5t301 98.5q258 0 417 -217t159 -571q0 -234 -71.5 -413.5t-202 -277.5t-300.5 -98zM616 129q186 0 300 175.5t114 459.5q0 285 -114.5 460t-301.5 175q-185 0 -299 -175t-114 -460
q0 -284 114.5 -459.5t300.5 -175.5z" />
    <glyph glyph-name="one.ss01" horiz-adv-x="819" 
d="M348 0v1372l-287 -102v153l308 103h143v-1526h-164z" />
    <glyph glyph-name="one.ss01.tf" horiz-adv-x="1228" 
d="M696 143h430v-143h-1024v143h430v1231l-278 -102v153l299 103h143v-1385z" />
    <glyph glyph-name="one.tf" horiz-adv-x="1228" 
d="M696 143h430v-143h-1024v143h430v1241h-301v144h465v-1385z" />
    <glyph glyph-name="two.tf" horiz-adv-x="1228" 
d="M117 0v102l426 449q106 111 165.5 180t108 140t67.5 129.5t19 123.5q0 136 -79.5 210.5t-219.5 74.5q-138 0 -233.5 -65.5t-139.5 -190.5l-131 61q54 156 189.5 247t314.5 91q200 0 331.5 -120.5t131.5 -307.5q0 -131 -82 -263t-252 -312l-383 -406h758v-143h-991z" />
    <glyph glyph-name="three.tf" horiz-adv-x="1228" 
d="M702 942q174 -22 292 -160.5t118 -322.5q0 -211 -144.5 -347.5t-365.5 -136.5q-177 0 -312.5 90t-193.5 248l131 62q46 -118 146.5 -187t228.5 -69q153 0 249.5 95t96.5 245q0 148 -98 244t-250 96q-31 0 -111 -8l-14 90l393 501l-700 2v144h885v-144z" />
    <glyph glyph-name="four.tf" horiz-adv-x="1228" 
d="M1163 494v-134h-194v-360h-144v360h-780v134l780 1034h144v-1034h194zM217 494h608v819z" />
    <glyph glyph-name="five.tf" horiz-adv-x="1228" 
d="M608 967q225 0 370.5 -140.5t145.5 -357.5q0 -218 -146 -356t-374 -138q-181 0 -319.5 90.5t-198.5 247.5l125 62q49 -118 156 -187t237 -69q156 0 256.5 97.5t100.5 252.5q0 154 -100 252t-259 98q-99 0 -181.5 -39t-119.5 -102l-104 20l82 832h780v-144h-664l-49 -493
q118 74 262 74z" />
    <glyph glyph-name="six.tf" horiz-adv-x="1228" 
d="M614 946q99 0 191 -39.5t158.5 -105t106.5 -155.5t40 -187q0 -207 -142.5 -345.5t-353.5 -138.5q-217 0 -356 141.5t-139 362.5q0 244 178 477l434 572h184l-481 -623q74 41 180 41zM614 119q142 0 237 97.5t95 242.5q0 147 -94 243.5t-238 96.5t-237.5 -96.5
t-93.5 -243.5q0 -145 94.5 -242.5t236.5 -97.5z" />
    <glyph glyph-name="seven.tf" horiz-adv-x="1228" 
d="M219 0l715 1386h-791v144h963v-144l-715 -1386h-172z" />
    <glyph glyph-name="eight.tf" horiz-adv-x="1228" 
d="M870 844q120 -55 191.5 -162.5t71.5 -241.5q0 -201 -148 -333t-371 -132q-224 0 -371 132t-147 333q0 134 70.5 242t191.5 162q-87 52 -134.5 135t-47.5 180q0 167 126 280t312 113q189 0 312 -110.5t123 -282.5q0 -97 -46 -179.5t-133 -135.5zM614 1409
q-117 0 -194.5 -72t-77.5 -178q0 -109 77 -180.5t195 -71.5q116 0 193.5 72t77.5 180t-77.5 179t-193.5 71zM614 119q153 0 255 91.5t102 229.5q0 140 -101.5 232t-255.5 92q-153 0 -253.5 -92t-100.5 -232q0 -139 100.5 -230t253.5 -91z" />
    <glyph glyph-name="nine.tf" horiz-adv-x="1228" 
d="M614 1552q217 0 356.5 -141t139.5 -362q0 -245 -178 -478l-434 -571h-185l482 623q-74 -41 -181 -41q-133 0 -247 66t-181 178.5t-67 242.5q0 207 142 345t353 138zM614 729q144 0 238 96.5t94 243.5q0 145 -95 242.5t-237 97.5t-236.5 -97.5t-94.5 -242.5
q0 -147 93.5 -243.5t237.5 -96.5z" />
    <glyph glyph-name="zero.dnom" horiz-adv-x="1017" 
d="M510 -14q-164 0 -265.5 130.5t-101.5 342.5t101 341.5t264 129.5q164 0 265 -129.5t101 -341.5q0 -213 -100 -343t-264 -130zM510 115q102 0 162.5 93.5t60.5 250.5q0 156 -60.5 249t-164.5 93q-101 0 -162 -93t-61 -249q0 -157 61 -250.5t164 -93.5z" />
    <glyph glyph-name="one.dnom" horiz-adv-x="684" 
d="M233 0v793h-172v122h316v-915h-144z" />
    <glyph glyph-name="two.dnom" horiz-adv-x="837" 
d="M106 0v102l250 263q119 126 158 182.5t39 114.5q0 66 -39 103.5t-108 37.5t-118.5 -35t-72.5 -100l-113 61q32 93 115 147t195 54q125 0 204.5 -71t79.5 -185q0 -76 -44.5 -150.5t-137.5 -171.5l-223 -231h424v-121h-609z" />
    <glyph glyph-name="three.dnom" horiz-adv-x="854" 
d="M500 565q103 -15 167 -92t64 -184q0 -131 -90.5 -217t-228.5 -86q-111 0 -193.5 54t-116.5 146l113 62q24 -62 75 -98.5t122 -36.5q78 0 128 48t50 124t-50 123t-130 47q-47 0 -84 -13l-25 72l236 279l-392 2v120h551v-114z" />
    <glyph glyph-name="four.dnom" horiz-adv-x="903" 
d="M801 326v-119h-133v-207h-138v207h-448v119l442 589h144v-589h133zM225 326h305v411z" />
    <glyph glyph-name="five.dnom" horiz-adv-x="862" 
d="M436 590q132 0 217.5 -82t85.5 -211q0 -135 -91 -223t-230 -88q-110 0 -196 54t-120 146l111 62q25 -61 80 -98t125 -37q79 0 129.5 49.5t50.5 128.5q0 78 -50.5 127t-131.5 49q-51 0 -91.5 -21t-60.5 -59l-102 25l65 503h484v-120h-385l-31 -242q55 37 141 37z" />
    <glyph glyph-name="six.dnom" horiz-adv-x="825" 
d="M430 575q122 0 207.5 -86.5t85.5 -205.5q0 -128 -88 -212.5t-223 -84.5q-134 0 -222 85.5t-88 217.5q0 121 99 256l270 370h162l-254 -346q24 6 51 6zM412 113q71 0 119.5 49t48.5 123q0 75 -48 122.5t-120 47.5q-71 0 -118.5 -48t-47.5 -122t48 -123t118 -49z" />
    <glyph glyph-name="seven.dnom" horiz-adv-x="733" 
d="M135 0l393 795h-446v123h590v-123l-387 -795h-150z" />
    <glyph glyph-name="eight.dnom" horiz-adv-x="897" 
d="M629 494q69 -35 107 -94t38 -132q0 -123 -92.5 -202.5t-232.5 -79.5t-233 80t-93 202q0 74 38.5 133t108.5 93q-51 30 -78.5 81t-27.5 111q0 104 81 174t204 70t203.5 -69t80.5 -175q0 -60 -27.5 -110.5t-76.5 -81.5zM449 809q-62 0 -102 -37t-40 -94t40 -93t102 -36
q60 0 99.5 36t39.5 93q0 58 -39.5 94.5t-99.5 36.5zM449 106q79 0 131.5 45.5t52.5 114.5q0 70 -52 116t-132 46t-131.5 -46t-51.5 -116q0 -69 52 -114.5t131 -45.5z" />
    <glyph glyph-name="nine.dnom" horiz-adv-x="825" 
d="M412 930q135 0 223 -85.5t88 -217.5q0 -121 -98 -256l-273 -371h-159l253 346q-24 -6 -51 -6q-122 0 -207.5 86.5t-85.5 206.5q0 128 88.5 212.5t221.5 84.5zM412 461q72 0 120 47.5t48 122.5q0 74 -48.5 123t-119.5 49q-70 0 -118 -49t-48 -123t47.5 -122t118.5 -48z
" />
    <glyph glyph-name="zero.numr" horiz-adv-x="1017" 
d="M510 596q-164 0 -265.5 130.5t-101.5 342.5t101 341.5t264 129.5q164 0 265 -129.5t101 -341.5q0 -213 -100 -343t-264 -130zM510 725q102 0 162.5 93.5t60.5 250.5q0 156 -60.5 249t-164.5 93q-101 0 -162 -93t-61 -249q0 -157 61 -250.5t164 -93.5z" />
    <glyph glyph-name="one.numr" horiz-adv-x="684" 
d="M233 610v793h-172v123h316v-916h-144z" />
    <glyph glyph-name="two.numr" horiz-adv-x="837" 
d="M106 610v103l250 262q119 126 158 182.5t39 114.5q0 66 -39 103.5t-108 37.5t-118.5 -35t-72.5 -100l-113 61q32 93 115 147t195 54q125 0 204.5 -71t79.5 -185q0 -76 -44 -150t-138 -171l-223 -232h424v-121h-609z" />
    <glyph glyph-name="three.numr" horiz-adv-x="854" 
d="M500 1176q103 -15 167 -92.5t64 -184.5q0 -131 -90.5 -217t-228.5 -86q-111 0 -193.5 54.5t-116.5 146.5l113 61q24 -62 75 -98.5t122 -36.5q78 0 128 48t50 124t-50 123t-130 47q-50 0 -84 -12l-25 71l236 279l-392 2v121h551v-115z" />
    <glyph glyph-name="four.numr" horiz-adv-x="903" 
d="M801 936v-119h-133v-207h-138v207h-448v119l442 590h144v-590h133zM225 936h305v412z" />
    <glyph glyph-name="five.numr" horiz-adv-x="862" 
d="M436 1200q132 0 217.5 -82t85.5 -211q0 -135 -91 -223t-230 -88q-109 0 -195.5 54.5t-120.5 146.5l111 61q25 -61 80 -98t125 -37q79 0 129.5 49.5t50.5 128.5q0 78 -50.5 127t-131.5 49q-51 0 -91.5 -21t-60.5 -59l-102 25l65 504h484v-121h-385l-31 -242q55 37 141 37z
" />
    <glyph glyph-name="six.numr" horiz-adv-x="825" 
d="M430 1186q122 0 207.5 -86.5t85.5 -206.5q0 -128 -88 -212.5t-223 -84.5q-134 0 -222 85.5t-88 217.5q0 121 99 256l270 371h162l-254 -346q24 6 51 6zM412 723q71 0 119.5 49t48.5 123q0 75 -48 122.5t-120 47.5q-71 0 -118.5 -48t-47.5 -122t48 -123t118 -49z" />
    <glyph glyph-name="seven.numr" horiz-adv-x="733" 
d="M135 608l393 795h-446v123h590v-123l-387 -795h-150z" />
    <glyph glyph-name="eight.numr" horiz-adv-x="897" 
d="M629 1104q69 -35 107 -93.5t38 -131.5q0 -123 -92.5 -203t-232.5 -80t-233 80t-93 203q0 74 38.5 132.5t108.5 92.5q-51 30 -78.5 81t-27.5 111q0 104 81 174t204 70t203.5 -69t80.5 -175q0 -60 -27.5 -110.5t-76.5 -81.5zM449 1419q-62 0 -102 -37t-40 -94t40 -93
t102 -36q60 0 99.5 36t39.5 93q0 58 -39.5 94.5t-99.5 36.5zM449 717q79 0 131.5 45.5t52.5 114.5q0 70 -52 115.5t-132 45.5t-131.5 -45.5t-51.5 -115.5q0 -69 52 -114.5t131 -45.5z" />
    <glyph glyph-name="nine.numr" horiz-adv-x="825" 
d="M412 1540q135 0 223 -85.5t88 -217.5q0 -121 -98 -256l-273 -371h-159l253 346q-24 -6 -51 -6q-122 0 -207.5 86.5t-85.5 206.5q0 128 88.5 212.5t221.5 84.5zM412 1071q72 0 120 47.5t48 122.5q0 74 -48.5 123t-119.5 49q-70 0 -118 -49t-48 -123t47.5 -122t118.5 -48z
" />
    <glyph glyph-name="uni030C.alt" 
d="M-188 1051l-39 475h186l-39 -475h-108z" />
    <glyph glyph-name="uni0335.alt" 
d="M-649 602v133h608v-133h-608z" />
    </font>
</defs>
</svg>
